<mxfile host="Electron" agent="Mozilla/5.0 (X11; Linux x86_64) AppleWebKit/537.36 (KHTML, like Gecko) draw.io/24.7.5 Chrome/126.0.6478.183 Electron/31.3.0 Safari/537.36" version="24.7.5" pages="3">
  <diagram name="Base_Model" id="0XX8voWQZg67bfcwIz8j">
    <mxGraphModel dx="830" dy="481" grid="1" gridSize="10" guides="1" tooltips="1" connect="1" arrows="1" fold="1" page="1" pageScale="1" pageWidth="827" pageHeight="1169" math="1" shadow="0">
      <root>
        <mxCell id="0" />
        <mxCell id="1" parent="0" />
        <mxCell id="9YF9n_oOePTZYvX8SAIh-27" value="" style="group" parent="1" vertex="1" connectable="0">
          <mxGeometry x="176.6828571428572" y="355.93092935852525" width="63.67346938775511" height="14.825761255848438" as="geometry" />
        </mxCell>
        <mxCell id="9YF9n_oOePTZYvX8SAIh-28" value="" style="endArrow=none;html=1;rounded=0;" parent="9YF9n_oOePTZYvX8SAIh-27" edge="1">
          <mxGeometry width="50" height="50" relative="1" as="geometry">
            <mxPoint as="sourcePoint" />
            <mxPoint x="63.67346938775511" as="targetPoint" />
          </mxGeometry>
        </mxCell>
        <mxCell id="9YF9n_oOePTZYvX8SAIh-29" value="" style="endArrow=none;html=1;rounded=0;" parent="9YF9n_oOePTZYvX8SAIh-27" edge="1">
          <mxGeometry width="50" height="50" relative="1" as="geometry">
            <mxPoint x="63.67346938775511" y="14.825761255848438" as="sourcePoint" />
            <mxPoint x="63.67346938775511" as="targetPoint" />
          </mxGeometry>
        </mxCell>
        <mxCell id="9YF9n_oOePTZYvX8SAIh-30" value="" style="endArrow=none;html=1;rounded=0;" parent="9YF9n_oOePTZYvX8SAIh-27" edge="1">
          <mxGeometry width="50" height="50" relative="1" as="geometry">
            <mxPoint y="14.825761255848438" as="sourcePoint" />
            <mxPoint x="63.67346938775511" y="14.825761255848438" as="targetPoint" />
          </mxGeometry>
        </mxCell>
        <mxCell id="9YF9n_oOePTZYvX8SAIh-31" value="" style="endArrow=none;html=1;rounded=0;" parent="9YF9n_oOePTZYvX8SAIh-27" edge="1">
          <mxGeometry width="50" height="50" relative="1" as="geometry">
            <mxPoint x="47.75510204081633" y="14.825761255848438" as="sourcePoint" />
            <mxPoint x="47.75510204081633" as="targetPoint" />
          </mxGeometry>
        </mxCell>
        <mxCell id="9YF9n_oOePTZYvX8SAIh-32" value="" style="endArrow=none;html=1;rounded=0;" parent="9YF9n_oOePTZYvX8SAIh-27" edge="1">
          <mxGeometry width="50" height="50" relative="1" as="geometry">
            <mxPoint x="31.836734693877556" y="14.825761255848438" as="sourcePoint" />
            <mxPoint x="31.836734693877556" as="targetPoint" />
          </mxGeometry>
        </mxCell>
        <mxCell id="9YF9n_oOePTZYvX8SAIh-33" value="" style="endArrow=none;html=1;rounded=0;" parent="9YF9n_oOePTZYvX8SAIh-27" edge="1">
          <mxGeometry width="50" height="50" relative="1" as="geometry">
            <mxPoint x="15.918367346938778" y="14.825761255848438" as="sourcePoint" />
            <mxPoint x="15.918367346938778" as="targetPoint" />
          </mxGeometry>
        </mxCell>
        <mxCell id="9YF9n_oOePTZYvX8SAIh-35" value="Ingresso" style="text;html=1;align=center;verticalAlign=middle;whiteSpace=wrap;rounded=0;fontSize=12;" parent="1" vertex="1">
          <mxGeometry x="160.7644897959184" y="415.41188351698923" width="95.51020408163266" height="29.651522511696875" as="geometry" />
        </mxCell>
        <mxCell id="9YF9n_oOePTZYvX8SAIh-41" value="" style="group" parent="1" vertex="1" connectable="0">
          <mxGeometry x="240.3563265306123" y="324.4261866898473" width="17.908163265306122" height="75.98202643622324" as="geometry" />
        </mxCell>
        <mxCell id="9YF9n_oOePTZYvX8SAIh-36" value="" style="ellipse;whiteSpace=wrap;html=1;aspect=fixed;strokeWidth=0;" parent="9YF9n_oOePTZYvX8SAIh-41" vertex="1">
          <mxGeometry width="16.678981412829494" height="16.678981412829494" as="geometry" />
        </mxCell>
        <mxCell id="9YF9n_oOePTZYvX8SAIh-37" value="" style="ellipse;whiteSpace=wrap;html=1;aspect=fixed;strokeWidth=0;" parent="9YF9n_oOePTZYvX8SAIh-41" vertex="1">
          <mxGeometry y="16.678981412829494" width="16.678981412829494" height="16.678981412829494" as="geometry" />
        </mxCell>
        <mxCell id="9YF9n_oOePTZYvX8SAIh-38" value="" style="ellipse;whiteSpace=wrap;html=1;aspect=fixed;strokeWidth=0;direction=south;" parent="9YF9n_oOePTZYvX8SAIh-41" vertex="1">
          <mxGeometry y="59.30304502339375" width="16.678981412829494" height="16.678981412829494" as="geometry" />
        </mxCell>
        <mxCell id="9YF9n_oOePTZYvX8SAIh-39" value="" style="endArrow=none;dashed=1;html=1;dashPattern=1 3;strokeWidth=2;rounded=0;exitX=0;exitY=0.5;exitDx=0;exitDy=0;" parent="9YF9n_oOePTZYvX8SAIh-41" source="9YF9n_oOePTZYvX8SAIh-38" edge="1">
          <mxGeometry width="50" height="50" relative="1" as="geometry">
            <mxPoint x="8.691428571428583" y="48.18372408150743" as="sourcePoint" />
            <mxPoint x="8.691428571428583" y="33.35796282565899" as="targetPoint" />
          </mxGeometry>
        </mxCell>
        <mxCell id="9YF9n_oOePTZYvX8SAIh-47" value="" style="endArrow=openThin;html=1;rounded=0;endFill=0;" parent="1" edge="1">
          <mxGeometry width="50" height="50" relative="1" as="geometry">
            <mxPoint x="114.9991836734694" y="363.3438099864495" as="sourcePoint" />
            <mxPoint x="176.6828571428572" y="363.58102216654305" as="targetPoint" />
          </mxGeometry>
        </mxCell>
        <mxCell id="9YF9n_oOePTZYvX8SAIh-154" value="" style="endArrow=openThin;html=1;rounded=0;endFill=0;startArrow=none;startFill=0;" parent="1" edge="1">
          <mxGeometry width="50" height="50" relative="1" as="geometry">
            <mxPoint x="258.26448979591845" y="362.17257484723746" as="sourcePoint" />
            <mxPoint x="430" y="362" as="targetPoint" />
          </mxGeometry>
        </mxCell>
        <mxCell id="9moDIsOlo_BN7XgSZu5O-12" value="$$p_a$$" style="edgeLabel;html=1;align=center;verticalAlign=middle;resizable=0;points=[];labelBackgroundColor=none;" parent="9YF9n_oOePTZYvX8SAIh-154" vertex="1" connectable="0">
          <mxGeometry x="0.6423" y="-1" relative="1" as="geometry">
            <mxPoint y="-14" as="offset" />
          </mxGeometry>
        </mxCell>
        <mxCell id="9YF9n_oOePTZYvX8SAIh-191" value="" style="endArrow=none;html=1;rounded=0;endFill=0;startArrow=openThin;startFill=0;" parent="1" edge="1">
          <mxGeometry width="50" height="50" relative="1" as="geometry">
            <mxPoint x="377.2542857142858" y="430.23764477283765" as="sourcePoint" />
            <mxPoint x="377.2542857142858" y="362.03914299593487" as="targetPoint" />
          </mxGeometry>
        </mxCell>
        <mxCell id="9moDIsOlo_BN7XgSZu5O-11" value="$$p_e$$" style="edgeLabel;html=1;align=center;verticalAlign=middle;resizable=0;points=[];labelBackgroundColor=none;" parent="9YF9n_oOePTZYvX8SAIh-191" vertex="1" connectable="0">
          <mxGeometry x="0.2638" y="1" relative="1" as="geometry">
            <mxPoint x="-8" y="7" as="offset" />
          </mxGeometry>
        </mxCell>
        <mxCell id="9YF9n_oOePTZYvX8SAIh-192" value="" style="endArrow=none;html=1;rounded=0;endFill=0;startArrow=openThin;startFill=0;" parent="1" edge="1">
          <mxGeometry width="50" height="50" relative="1" as="geometry">
            <mxPoint x="313.5808163265307" y="362.9731659550533" as="sourcePoint" />
            <mxPoint x="313.5808163265307" y="60.70554547081532" as="targetPoint" />
          </mxGeometry>
        </mxCell>
        <mxCell id="9YF9n_oOePTZYvX8SAIh-211" value="" style="endArrow=none;html=1;rounded=0;" parent="1" edge="1">
          <mxGeometry width="50" height="50" relative="1" as="geometry">
            <mxPoint x="430" y="410" as="sourcePoint" />
            <mxPoint x="430.00448979591846" y="316.6315547260502" as="targetPoint" />
          </mxGeometry>
        </mxCell>
        <mxCell id="9YF9n_oOePTZYvX8SAIh-212" value="" style="group" parent="1" vertex="1" connectable="0">
          <mxGeometry x="430.00448979591846" y="279.948902922302" width="146.84693877551024" height="75.98202643622324" as="geometry" />
        </mxCell>
        <mxCell id="9YF9n_oOePTZYvX8SAIh-138" value="" style="group" parent="9YF9n_oOePTZYvX8SAIh-212" vertex="1" connectable="0">
          <mxGeometry y="21.4825280597244" width="65.265306122449" height="31.14892439853758" as="geometry" />
        </mxCell>
        <mxCell id="9YF9n_oOePTZYvX8SAIh-134" value="" style="endArrow=openThin;html=1;rounded=0;endFill=0;" parent="9YF9n_oOePTZYvX8SAIh-138" edge="1">
          <mxGeometry width="50" height="50" relative="1" as="geometry">
            <mxPoint x="33.42857142857144" y="0.014825761255856022" as="sourcePoint" />
            <mxPoint x="65.265306122449" as="targetPoint" />
          </mxGeometry>
        </mxCell>
        <mxCell id="9moDIsOlo_BN7XgSZu5O-15" value="$$p_{pr}$$" style="edgeLabel;align=center;verticalAlign=middle;resizable=1;points=[];html=1;labelBackgroundColor=none;" parent="9YF9n_oOePTZYvX8SAIh-134" vertex="1" connectable="0">
          <mxGeometry relative="1" as="geometry">
            <mxPoint y="-13" as="offset" />
          </mxGeometry>
        </mxCell>
        <mxCell id="9YF9n_oOePTZYvX8SAIh-135" value="" style="endArrow=openThin;html=1;rounded=0;endFill=0;" parent="9YF9n_oOePTZYvX8SAIh-138" edge="1">
          <mxGeometry width="50" height="50" relative="1" as="geometry">
            <mxPoint x="33.42857142857144" y="31.14892439853758" as="sourcePoint" />
            <mxPoint x="65.265306122449" y="31.134098637281728" as="targetPoint" />
          </mxGeometry>
        </mxCell>
        <mxCell id="9moDIsOlo_BN7XgSZu5O-18" value="$$1-p_{pr}$$" style="edgeLabel;html=1;align=center;verticalAlign=middle;resizable=0;points=[];labelBackgroundColor=none;" parent="9YF9n_oOePTZYvX8SAIh-135" vertex="1" connectable="0">
          <mxGeometry x="-0.2105" y="1" relative="1" as="geometry">
            <mxPoint y="10" as="offset" />
          </mxGeometry>
        </mxCell>
        <mxCell id="9YF9n_oOePTZYvX8SAIh-136" value="" style="endArrow=none;html=1;rounded=0;" parent="9YF9n_oOePTZYvX8SAIh-138" edge="1">
          <mxGeometry width="50" height="50" relative="1" as="geometry">
            <mxPoint x="33.42857142857144" y="30.585545470815326" as="sourcePoint" />
            <mxPoint x="33.42857142857144" y="0.9340229591184501" as="targetPoint" />
          </mxGeometry>
        </mxCell>
        <mxCell id="9YF9n_oOePTZYvX8SAIh-137" value="" style="endArrow=none;html=1;rounded=0;" parent="9YF9n_oOePTZYvX8SAIh-138" edge="1">
          <mxGeometry width="50" height="50" relative="1" as="geometry">
            <mxPoint y="15.611526602408413" as="sourcePoint" />
            <mxPoint x="31.83673469387756" y="15.611526602408413" as="targetPoint" />
          </mxGeometry>
        </mxCell>
        <mxCell id="9moDIsOlo_BN7XgSZu5O-14" value="$$p_{a_i}$$" style="edgeLabel;html=1;align=center;verticalAlign=middle;resizable=0;points=[];labelBackgroundColor=none;" parent="9YF9n_oOePTZYvX8SAIh-137" vertex="1" connectable="0">
          <mxGeometry x="-0.1298" y="1" relative="1" as="geometry">
            <mxPoint y="-11" as="offset" />
          </mxGeometry>
        </mxCell>
        <mxCell id="9YF9n_oOePTZYvX8SAIh-156" value="" style="group" parent="9YF9n_oOePTZYvX8SAIh-212" vertex="1" connectable="0">
          <mxGeometry x="64.99530612244901" width="81.58163265306125" height="75.98202643622324" as="geometry" />
        </mxCell>
        <mxCell id="9YF9n_oOePTZYvX8SAIh-157" value="" style="group" parent="9YF9n_oOePTZYvX8SAIh-156" vertex="1" connectable="0">
          <mxGeometry y="15.759784214966883" width="63.67346938775512" height="14.825761255848438" as="geometry" />
        </mxCell>
        <mxCell id="9YF9n_oOePTZYvX8SAIh-158" value="" style="endArrow=none;html=1;rounded=0;" parent="9YF9n_oOePTZYvX8SAIh-157" edge="1">
          <mxGeometry width="50" height="50" relative="1" as="geometry">
            <mxPoint as="sourcePoint" />
            <mxPoint x="63.67346938775512" as="targetPoint" />
          </mxGeometry>
        </mxCell>
        <mxCell id="9YF9n_oOePTZYvX8SAIh-159" value="" style="endArrow=none;html=1;rounded=0;" parent="9YF9n_oOePTZYvX8SAIh-157" edge="1">
          <mxGeometry width="50" height="50" relative="1" as="geometry">
            <mxPoint x="63.67346938775512" y="14.825761255848438" as="sourcePoint" />
            <mxPoint x="63.67346938775512" as="targetPoint" />
          </mxGeometry>
        </mxCell>
        <mxCell id="9YF9n_oOePTZYvX8SAIh-160" value="" style="endArrow=none;html=1;rounded=0;" parent="9YF9n_oOePTZYvX8SAIh-157" edge="1">
          <mxGeometry width="50" height="50" relative="1" as="geometry">
            <mxPoint y="14.825761255848438" as="sourcePoint" />
            <mxPoint x="63.67346938775512" y="14.825761255848438" as="targetPoint" />
          </mxGeometry>
        </mxCell>
        <mxCell id="9YF9n_oOePTZYvX8SAIh-161" value="" style="endArrow=none;html=1;rounded=0;" parent="9YF9n_oOePTZYvX8SAIh-157" edge="1">
          <mxGeometry width="50" height="50" relative="1" as="geometry">
            <mxPoint x="47.75510204081634" y="14.825761255848438" as="sourcePoint" />
            <mxPoint x="47.75510204081634" as="targetPoint" />
          </mxGeometry>
        </mxCell>
        <mxCell id="9YF9n_oOePTZYvX8SAIh-162" value="" style="endArrow=none;html=1;rounded=0;" parent="9YF9n_oOePTZYvX8SAIh-157" edge="1">
          <mxGeometry width="50" height="50" relative="1" as="geometry">
            <mxPoint x="31.83673469387756" y="14.825761255848438" as="sourcePoint" />
            <mxPoint x="31.83673469387756" as="targetPoint" />
          </mxGeometry>
        </mxCell>
        <mxCell id="9YF9n_oOePTZYvX8SAIh-163" value="" style="endArrow=none;html=1;rounded=0;" parent="9YF9n_oOePTZYvX8SAIh-157" edge="1">
          <mxGeometry width="50" height="50" relative="1" as="geometry">
            <mxPoint x="15.91836734693878" y="14.825761255848438" as="sourcePoint" />
            <mxPoint x="15.91836734693878" as="targetPoint" />
          </mxGeometry>
        </mxCell>
        <mxCell id="9YF9n_oOePTZYvX8SAIh-164" value="" style="group" parent="9YF9n_oOePTZYvX8SAIh-156" vertex="1" connectable="0">
          <mxGeometry y="46.33050392452637" width="63.67346938775512" height="14.825761255848438" as="geometry" />
        </mxCell>
        <mxCell id="9YF9n_oOePTZYvX8SAIh-165" value="" style="endArrow=none;html=1;rounded=0;" parent="9YF9n_oOePTZYvX8SAIh-164" edge="1">
          <mxGeometry width="50" height="50" relative="1" as="geometry">
            <mxPoint as="sourcePoint" />
            <mxPoint x="63.67346938775512" as="targetPoint" />
          </mxGeometry>
        </mxCell>
        <mxCell id="9YF9n_oOePTZYvX8SAIh-166" value="" style="endArrow=none;html=1;rounded=0;" parent="9YF9n_oOePTZYvX8SAIh-164" edge="1">
          <mxGeometry width="50" height="50" relative="1" as="geometry">
            <mxPoint x="63.67346938775512" y="14.825761255848438" as="sourcePoint" />
            <mxPoint x="63.67346938775512" as="targetPoint" />
          </mxGeometry>
        </mxCell>
        <mxCell id="9YF9n_oOePTZYvX8SAIh-167" value="" style="endArrow=none;html=1;rounded=0;" parent="9YF9n_oOePTZYvX8SAIh-164" edge="1">
          <mxGeometry width="50" height="50" relative="1" as="geometry">
            <mxPoint y="14.825761255848438" as="sourcePoint" />
            <mxPoint x="63.67346938775512" y="14.825761255848438" as="targetPoint" />
          </mxGeometry>
        </mxCell>
        <mxCell id="9YF9n_oOePTZYvX8SAIh-168" value="" style="endArrow=none;html=1;rounded=0;" parent="9YF9n_oOePTZYvX8SAIh-164" edge="1">
          <mxGeometry width="50" height="50" relative="1" as="geometry">
            <mxPoint x="47.75510204081634" y="14.825761255848438" as="sourcePoint" />
            <mxPoint x="47.75510204081634" as="targetPoint" />
          </mxGeometry>
        </mxCell>
        <mxCell id="9YF9n_oOePTZYvX8SAIh-169" value="" style="endArrow=none;html=1;rounded=0;" parent="9YF9n_oOePTZYvX8SAIh-164" edge="1">
          <mxGeometry width="50" height="50" relative="1" as="geometry">
            <mxPoint x="31.83673469387756" y="14.825761255848438" as="sourcePoint" />
            <mxPoint x="31.83673469387756" as="targetPoint" />
          </mxGeometry>
        </mxCell>
        <mxCell id="9YF9n_oOePTZYvX8SAIh-170" value="" style="endArrow=none;html=1;rounded=0;" parent="9YF9n_oOePTZYvX8SAIh-164" edge="1">
          <mxGeometry width="50" height="50" relative="1" as="geometry">
            <mxPoint x="15.91836734693878" y="14.825761255848438" as="sourcePoint" />
            <mxPoint x="15.91836734693878" as="targetPoint" />
          </mxGeometry>
        </mxCell>
        <mxCell id="9YF9n_oOePTZYvX8SAIh-171" value="" style="group" parent="9YF9n_oOePTZYvX8SAIh-156" vertex="1" connectable="0">
          <mxGeometry x="63.67346938775512" width="17.908163265306126" height="75.98202643622324" as="geometry" />
        </mxCell>
        <mxCell id="9YF9n_oOePTZYvX8SAIh-172" value="" style="ellipse;whiteSpace=wrap;html=1;aspect=fixed;strokeWidth=0;" parent="9YF9n_oOePTZYvX8SAIh-171" vertex="1">
          <mxGeometry width="16.678981412829494" height="16.678981412829494" as="geometry" />
        </mxCell>
        <mxCell id="9YF9n_oOePTZYvX8SAIh-173" value="" style="ellipse;whiteSpace=wrap;html=1;aspect=fixed;strokeWidth=0;" parent="9YF9n_oOePTZYvX8SAIh-171" vertex="1">
          <mxGeometry y="16.678981412829494" width="16.678981412829494" height="16.678981412829494" as="geometry" />
        </mxCell>
        <mxCell id="9YF9n_oOePTZYvX8SAIh-174" value="" style="ellipse;whiteSpace=wrap;html=1;aspect=fixed;strokeWidth=0;direction=south;" parent="9YF9n_oOePTZYvX8SAIh-171" vertex="1">
          <mxGeometry y="59.30304502339375" width="16.678981412829494" height="16.678981412829494" as="geometry" />
        </mxCell>
        <mxCell id="9YF9n_oOePTZYvX8SAIh-175" value="" style="endArrow=none;dashed=1;html=1;dashPattern=1 3;strokeWidth=2;rounded=0;exitX=0;exitY=0.5;exitDx=0;exitDy=0;" parent="9YF9n_oOePTZYvX8SAIh-171" source="9YF9n_oOePTZYvX8SAIh-174" edge="1">
          <mxGeometry width="50" height="50" relative="1" as="geometry">
            <mxPoint x="8.691428571428586" y="48.18372408150743" as="sourcePoint" />
            <mxPoint x="8.691428571428586" y="33.35796282565899" as="targetPoint" />
          </mxGeometry>
        </mxCell>
        <mxCell id="9YF9n_oOePTZYvX8SAIh-213" value="" style="group" parent="1" vertex="1" connectable="0">
          <mxGeometry x="430.00448979591846" y="370.7566906143737" width="146.84693877551024" height="75.98202643622324" as="geometry" />
        </mxCell>
        <mxCell id="9YF9n_oOePTZYvX8SAIh-80" value="" style="group" parent="9YF9n_oOePTZYvX8SAIh-213" vertex="1" connectable="0">
          <mxGeometry x="64.99530612244901" width="81.58163265306125" height="75.98202643622324" as="geometry" />
        </mxCell>
        <mxCell id="9YF9n_oOePTZYvX8SAIh-81" value="" style="group" parent="9YF9n_oOePTZYvX8SAIh-80" vertex="1" connectable="0">
          <mxGeometry y="15.759784214966883" width="63.67346938775512" height="14.825761255848438" as="geometry" />
        </mxCell>
        <mxCell id="9YF9n_oOePTZYvX8SAIh-82" value="" style="endArrow=none;html=1;rounded=0;" parent="9YF9n_oOePTZYvX8SAIh-81" edge="1">
          <mxGeometry width="50" height="50" relative="1" as="geometry">
            <mxPoint as="sourcePoint" />
            <mxPoint x="63.67346938775512" as="targetPoint" />
          </mxGeometry>
        </mxCell>
        <mxCell id="9YF9n_oOePTZYvX8SAIh-83" value="" style="endArrow=none;html=1;rounded=0;" parent="9YF9n_oOePTZYvX8SAIh-81" edge="1">
          <mxGeometry width="50" height="50" relative="1" as="geometry">
            <mxPoint x="63.67346938775512" y="14.825761255848438" as="sourcePoint" />
            <mxPoint x="63.67346938775512" as="targetPoint" />
          </mxGeometry>
        </mxCell>
        <mxCell id="9YF9n_oOePTZYvX8SAIh-84" value="" style="endArrow=none;html=1;rounded=0;" parent="9YF9n_oOePTZYvX8SAIh-81" edge="1">
          <mxGeometry width="50" height="50" relative="1" as="geometry">
            <mxPoint y="14.825761255848438" as="sourcePoint" />
            <mxPoint x="63.67346938775512" y="14.825761255848438" as="targetPoint" />
          </mxGeometry>
        </mxCell>
        <mxCell id="9YF9n_oOePTZYvX8SAIh-85" value="" style="endArrow=none;html=1;rounded=0;" parent="9YF9n_oOePTZYvX8SAIh-81" edge="1">
          <mxGeometry width="50" height="50" relative="1" as="geometry">
            <mxPoint x="47.75510204081634" y="14.825761255848438" as="sourcePoint" />
            <mxPoint x="47.75510204081634" as="targetPoint" />
          </mxGeometry>
        </mxCell>
        <mxCell id="9YF9n_oOePTZYvX8SAIh-86" value="" style="endArrow=none;html=1;rounded=0;" parent="9YF9n_oOePTZYvX8SAIh-81" edge="1">
          <mxGeometry width="50" height="50" relative="1" as="geometry">
            <mxPoint x="31.83673469387756" y="14.825761255848438" as="sourcePoint" />
            <mxPoint x="31.83673469387756" as="targetPoint" />
          </mxGeometry>
        </mxCell>
        <mxCell id="9YF9n_oOePTZYvX8SAIh-87" value="" style="endArrow=none;html=1;rounded=0;" parent="9YF9n_oOePTZYvX8SAIh-81" edge="1">
          <mxGeometry width="50" height="50" relative="1" as="geometry">
            <mxPoint x="15.91836734693878" y="14.825761255848438" as="sourcePoint" />
            <mxPoint x="15.91836734693878" as="targetPoint" />
          </mxGeometry>
        </mxCell>
        <mxCell id="9YF9n_oOePTZYvX8SAIh-88" value="" style="group" parent="9YF9n_oOePTZYvX8SAIh-80" vertex="1" connectable="0">
          <mxGeometry y="46.33050392452637" width="63.67346938775512" height="14.825761255848438" as="geometry" />
        </mxCell>
        <mxCell id="9YF9n_oOePTZYvX8SAIh-89" value="" style="endArrow=none;html=1;rounded=0;" parent="9YF9n_oOePTZYvX8SAIh-88" edge="1">
          <mxGeometry width="50" height="50" relative="1" as="geometry">
            <mxPoint as="sourcePoint" />
            <mxPoint x="63.67346938775512" as="targetPoint" />
          </mxGeometry>
        </mxCell>
        <mxCell id="9YF9n_oOePTZYvX8SAIh-90" value="" style="endArrow=none;html=1;rounded=0;" parent="9YF9n_oOePTZYvX8SAIh-88" edge="1">
          <mxGeometry width="50" height="50" relative="1" as="geometry">
            <mxPoint x="63.67346938775512" y="14.825761255848438" as="sourcePoint" />
            <mxPoint x="63.67346938775512" as="targetPoint" />
          </mxGeometry>
        </mxCell>
        <mxCell id="9YF9n_oOePTZYvX8SAIh-91" value="" style="endArrow=none;html=1;rounded=0;" parent="9YF9n_oOePTZYvX8SAIh-88" edge="1">
          <mxGeometry width="50" height="50" relative="1" as="geometry">
            <mxPoint y="14.825761255848438" as="sourcePoint" />
            <mxPoint x="63.67346938775512" y="14.825761255848438" as="targetPoint" />
          </mxGeometry>
        </mxCell>
        <mxCell id="9YF9n_oOePTZYvX8SAIh-92" value="" style="endArrow=none;html=1;rounded=0;" parent="9YF9n_oOePTZYvX8SAIh-88" edge="1">
          <mxGeometry width="50" height="50" relative="1" as="geometry">
            <mxPoint x="47.75510204081634" y="14.825761255848438" as="sourcePoint" />
            <mxPoint x="47.75510204081634" as="targetPoint" />
          </mxGeometry>
        </mxCell>
        <mxCell id="9YF9n_oOePTZYvX8SAIh-93" value="" style="endArrow=none;html=1;rounded=0;" parent="9YF9n_oOePTZYvX8SAIh-88" edge="1">
          <mxGeometry width="50" height="50" relative="1" as="geometry">
            <mxPoint x="31.83673469387756" y="14.825761255848438" as="sourcePoint" />
            <mxPoint x="31.83673469387756" as="targetPoint" />
          </mxGeometry>
        </mxCell>
        <mxCell id="9YF9n_oOePTZYvX8SAIh-94" value="" style="endArrow=none;html=1;rounded=0;" parent="9YF9n_oOePTZYvX8SAIh-88" edge="1">
          <mxGeometry width="50" height="50" relative="1" as="geometry">
            <mxPoint x="15.91836734693878" y="14.825761255848438" as="sourcePoint" />
            <mxPoint x="15.91836734693878" as="targetPoint" />
          </mxGeometry>
        </mxCell>
        <mxCell id="9YF9n_oOePTZYvX8SAIh-95" value="" style="group" parent="9YF9n_oOePTZYvX8SAIh-80" vertex="1" connectable="0">
          <mxGeometry x="63.67346938775512" width="17.908163265306126" height="75.98202643622324" as="geometry" />
        </mxCell>
        <mxCell id="9YF9n_oOePTZYvX8SAIh-96" value="" style="ellipse;whiteSpace=wrap;html=1;aspect=fixed;strokeWidth=0;" parent="9YF9n_oOePTZYvX8SAIh-95" vertex="1">
          <mxGeometry width="16.678981412829494" height="16.678981412829494" as="geometry" />
        </mxCell>
        <mxCell id="9YF9n_oOePTZYvX8SAIh-97" value="" style="ellipse;whiteSpace=wrap;html=1;aspect=fixed;strokeWidth=0;" parent="9YF9n_oOePTZYvX8SAIh-95" vertex="1">
          <mxGeometry y="16.678981412829494" width="16.678981412829494" height="16.678981412829494" as="geometry" />
        </mxCell>
        <mxCell id="9YF9n_oOePTZYvX8SAIh-98" value="" style="ellipse;whiteSpace=wrap;html=1;aspect=fixed;strokeWidth=0;direction=south;" parent="9YF9n_oOePTZYvX8SAIh-95" vertex="1">
          <mxGeometry y="59.30304502339375" width="16.678981412829494" height="16.678981412829494" as="geometry" />
        </mxCell>
        <mxCell id="9YF9n_oOePTZYvX8SAIh-99" value="" style="endArrow=none;dashed=1;html=1;dashPattern=1 3;strokeWidth=2;rounded=0;exitX=0;exitY=0.5;exitDx=0;exitDy=0;" parent="9YF9n_oOePTZYvX8SAIh-95" source="9YF9n_oOePTZYvX8SAIh-98" edge="1">
          <mxGeometry width="50" height="50" relative="1" as="geometry">
            <mxPoint x="8.691428571428586" y="48.18372408150743" as="sourcePoint" />
            <mxPoint x="8.691428571428586" y="33.35796282565899" as="targetPoint" />
          </mxGeometry>
        </mxCell>
        <mxCell id="9YF9n_oOePTZYvX8SAIh-144" value="" style="group" parent="9YF9n_oOePTZYvX8SAIh-213" vertex="1" connectable="0">
          <mxGeometry y="22.416551018842846" width="65.265306122449" height="31.14892439853758" as="geometry" />
        </mxCell>
        <mxCell id="9YF9n_oOePTZYvX8SAIh-145" value="" style="endArrow=openThin;html=1;rounded=0;endFill=0;" parent="9YF9n_oOePTZYvX8SAIh-144" edge="1">
          <mxGeometry width="50" height="50" relative="1" as="geometry">
            <mxPoint x="33.42857142857144" y="0.014825761255856022" as="sourcePoint" />
            <mxPoint x="65.265306122449" as="targetPoint" />
          </mxGeometry>
        </mxCell>
        <mxCell id="9YF9n_oOePTZYvX8SAIh-146" value="" style="endArrow=openThin;html=1;rounded=0;endFill=0;" parent="9YF9n_oOePTZYvX8SAIh-144" edge="1">
          <mxGeometry width="50" height="50" relative="1" as="geometry">
            <mxPoint x="33.42857142857144" y="31.14892439853758" as="sourcePoint" />
            <mxPoint x="65.265306122449" y="31.134098637281728" as="targetPoint" />
          </mxGeometry>
        </mxCell>
        <mxCell id="9YF9n_oOePTZYvX8SAIh-147" value="" style="endArrow=none;html=1;rounded=0;" parent="9YF9n_oOePTZYvX8SAIh-144" edge="1">
          <mxGeometry width="50" height="50" relative="1" as="geometry">
            <mxPoint x="33.42857142857144" y="30.585545470815326" as="sourcePoint" />
            <mxPoint x="33.42857142857144" y="0.9340229591184501" as="targetPoint" />
          </mxGeometry>
        </mxCell>
        <mxCell id="9YF9n_oOePTZYvX8SAIh-148" value="" style="endArrow=none;html=1;rounded=0;" parent="9YF9n_oOePTZYvX8SAIh-144" edge="1">
          <mxGeometry width="50" height="50" relative="1" as="geometry">
            <mxPoint y="15.611526602408413" as="sourcePoint" />
            <mxPoint x="31.83673469387756" y="15.611526602408413" as="targetPoint" />
          </mxGeometry>
        </mxCell>
        <mxCell id="9YF9n_oOePTZYvX8SAIh-214" value="" style="endArrow=none;html=1;rounded=0;" parent="1" edge="1">
          <mxGeometry width="50" height="50" relative="1" as="geometry">
            <mxPoint x="636" y="410" as="sourcePoint" />
            <mxPoint x="636" y="318" as="targetPoint" />
          </mxGeometry>
        </mxCell>
        <mxCell id="9YF9n_oOePTZYvX8SAIh-215" value="" style="endArrow=openThin;html=1;rounded=0;endFill=0;" parent="1" edge="1">
          <mxGeometry width="50" height="50" relative="1" as="geometry">
            <mxPoint x="576" y="318" as="sourcePoint" />
            <mxPoint x="636" y="318" as="targetPoint" />
          </mxGeometry>
        </mxCell>
        <mxCell id="9YF9n_oOePTZYvX8SAIh-216" value="" style="endArrow=openThin;html=1;rounded=0;endFill=0;" parent="1" edge="1">
          <mxGeometry width="50" height="50" relative="1" as="geometry">
            <mxPoint x="576" y="410" as="sourcePoint" />
            <mxPoint x="636" y="410" as="targetPoint" />
          </mxGeometry>
        </mxCell>
        <mxCell id="9YF9n_oOePTZYvX8SAIh-219" value="" style="endArrow=none;html=1;rounded=0;" parent="1" edge="1">
          <mxGeometry width="50" height="50" relative="1" as="geometry">
            <mxPoint x="712" y="365" as="sourcePoint" />
            <mxPoint x="712" y="59" as="targetPoint" />
          </mxGeometry>
        </mxCell>
        <mxCell id="9YF9n_oOePTZYvX8SAIh-220" value="" style="endArrow=none;html=1;rounded=0;" parent="1" edge="1">
          <mxGeometry width="50" height="50" relative="1" as="geometry">
            <mxPoint x="313.5808163265307" y="59.59361337662669" as="sourcePoint" />
            <mxPoint x="711.5400000000001" y="59.59361337662669" as="targetPoint" />
          </mxGeometry>
        </mxCell>
        <mxCell id="9YF9n_oOePTZYvX8SAIh-238" value="Area&amp;nbsp;&lt;span style=&quot;background-color: initial;&quot;&gt;Attrazioni&lt;/span&gt;" style="text;html=1;align=center;verticalAlign=middle;whiteSpace=wrap;rounded=0;fontSize=12;" parent="1" vertex="1">
          <mxGeometry x="560.0012244897958" y="449.99871705059695" width="95.51020408163266" height="44.477283767545316" as="geometry" />
        </mxCell>
        <mxCell id="9YF9n_oOePTZYvX8SAIh-239" value="" style="endArrow=none;dashed=1;html=1;dashPattern=1 3;strokeWidth=2;rounded=0;" parent="1" edge="1">
          <mxGeometry width="50" height="50" relative="1" as="geometry">
            <mxPoint x="504.9487755102042" y="362.0687945184465" as="sourcePoint" />
            <mxPoint x="552.7038775510205" y="362.0687945184465" as="targetPoint" />
          </mxGeometry>
        </mxCell>
        <mxCell id="9YF9n_oOePTZYvX8SAIh-240" value="Area Ristoro" style="text;html=1;align=center;verticalAlign=middle;whiteSpace=wrap;rounded=0;fontSize=12;" parent="1" vertex="1">
          <mxGeometry x="551.575918367347" y="219.99716232454685" width="95.51020408163266" height="44.477283767545316" as="geometry" />
        </mxCell>
        <mxCell id="9YF9n_oOePTZYvX8SAIh-241" value="" style="endArrow=openThin;html=1;rounded=0;endFill=0;" parent="1" edge="1">
          <mxGeometry width="50" height="50" relative="1" as="geometry">
            <mxPoint x="377" y="112" as="sourcePoint" />
            <mxPoint x="469.76448979591845" y="112.0619824610743" as="targetPoint" />
          </mxGeometry>
        </mxCell>
        <mxCell id="9moDIsOlo_BN7XgSZu5O-19" value="$$p_{r_i}$$" style="edgeLabel;html=1;align=center;verticalAlign=middle;resizable=0;points=[];labelBackgroundColor=none;" parent="9YF9n_oOePTZYvX8SAIh-241" vertex="1" connectable="0">
          <mxGeometry x="-0.0837" relative="1" as="geometry">
            <mxPoint y="-13" as="offset" />
          </mxGeometry>
        </mxCell>
        <mxCell id="9YF9n_oOePTZYvX8SAIh-261" value="" style="endArrow=none;html=1;rounded=0;" parent="1" edge="1">
          <mxGeometry width="50" height="50" relative="1" as="geometry">
            <mxPoint x="600" y="199" as="sourcePoint" />
            <mxPoint x="599.3473469387754" y="110.07089714417201" as="targetPoint" />
          </mxGeometry>
        </mxCell>
        <mxCell id="9YF9n_oOePTZYvX8SAIh-262" value="" style="endArrow=openThin;html=1;rounded=0;endFill=0;" parent="1" edge="1">
          <mxGeometry width="50" height="50" relative="1" as="geometry">
            <mxPoint x="554.3461224489797" y="112.0619824610743" as="sourcePoint" />
            <mxPoint x="600.1114285714285" y="111.48377777209622" as="targetPoint" />
          </mxGeometry>
        </mxCell>
        <mxCell id="9YF9n_oOePTZYvX8SAIh-263" value="" style="endArrow=openThin;html=1;rounded=0;endFill=0;" parent="1" edge="1">
          <mxGeometry width="50" height="50" relative="1" as="geometry">
            <mxPoint x="554.3461224489797" y="198.57747091759774" as="sourcePoint" />
            <mxPoint x="600.1114285714285" y="197.99926622861966" as="targetPoint" />
          </mxGeometry>
        </mxCell>
        <mxCell id="9YF9n_oOePTZYvX8SAIh-283" value="" style="endArrow=openThin;html=1;rounded=0;endFill=0;" parent="1" edge="1">
          <mxGeometry width="50" height="50" relative="1" as="geometry">
            <mxPoint x="600.1114285714285" y="153.7224196558689" as="sourcePoint" />
            <mxPoint x="711.5400000000001" y="153.7224196558689" as="targetPoint" />
          </mxGeometry>
        </mxCell>
        <mxCell id="9YF9n_oOePTZYvX8SAIh-284" value="" style="endArrow=openThin;html=1;rounded=0;endFill=0;" parent="1" edge="1">
          <mxGeometry width="50" height="50" relative="1" as="geometry">
            <mxPoint x="637" y="364" as="sourcePoint" />
            <mxPoint x="710" y="364" as="targetPoint" />
          </mxGeometry>
        </mxCell>
        <mxCell id="9YF9n_oOePTZYvX8SAIh-307" value="" style="endArrow=none;dashed=1;html=1;dashPattern=1 3;strokeWidth=2;rounded=0;" parent="1" edge="1">
          <mxGeometry width="50" height="50" relative="1" as="geometry">
            <mxPoint x="471.59448979591843" y="151.63992738987037" as="sourcePoint" />
            <mxPoint x="535.2679591836735" y="151.0024196558689" as="targetPoint" />
            <Array as="points">
              <mxPoint x="510" y="151" />
            </Array>
          </mxGeometry>
        </mxCell>
        <mxCell id="5AT_HbX1zXzAGe6IebqW-1" value="" style="endArrow=none;html=1;rounded=0;" parent="1" edge="1">
          <mxGeometry width="50" height="50" relative="1" as="geometry">
            <mxPoint x="377" y="362.93" as="sourcePoint" />
            <mxPoint x="377" y="112" as="targetPoint" />
          </mxGeometry>
        </mxCell>
        <mxCell id="9moDIsOlo_BN7XgSZu5O-13" value="$$p_r$$" style="edgeLabel;html=1;align=center;verticalAlign=middle;resizable=0;points=[];labelBackgroundColor=none;" parent="5AT_HbX1zXzAGe6IebqW-1" vertex="1" connectable="0">
          <mxGeometry x="-0.6464" y="1" relative="1" as="geometry">
            <mxPoint x="-8" y="-1" as="offset" />
          </mxGeometry>
        </mxCell>
        <mxCell id="jUhbXI_L2mKJ1Rviw_x4-1" value="" style="group" parent="1" vertex="1" connectable="0">
          <mxGeometry x="470" y="105" width="63.67346938775511" height="14.825761255848438" as="geometry" />
        </mxCell>
        <mxCell id="jUhbXI_L2mKJ1Rviw_x4-2" value="" style="endArrow=none;html=1;rounded=0;" parent="jUhbXI_L2mKJ1Rviw_x4-1" edge="1">
          <mxGeometry width="50" height="50" relative="1" as="geometry">
            <mxPoint as="sourcePoint" />
            <mxPoint x="63.67346938775511" as="targetPoint" />
          </mxGeometry>
        </mxCell>
        <mxCell id="jUhbXI_L2mKJ1Rviw_x4-3" value="" style="endArrow=none;html=1;rounded=0;" parent="jUhbXI_L2mKJ1Rviw_x4-1" edge="1">
          <mxGeometry width="50" height="50" relative="1" as="geometry">
            <mxPoint x="63.67346938775511" y="14.825761255848438" as="sourcePoint" />
            <mxPoint x="63.67346938775511" as="targetPoint" />
          </mxGeometry>
        </mxCell>
        <mxCell id="jUhbXI_L2mKJ1Rviw_x4-4" value="" style="endArrow=none;html=1;rounded=0;" parent="jUhbXI_L2mKJ1Rviw_x4-1" edge="1">
          <mxGeometry width="50" height="50" relative="1" as="geometry">
            <mxPoint y="14.825761255848438" as="sourcePoint" />
            <mxPoint x="63.67346938775511" y="14.825761255848438" as="targetPoint" />
          </mxGeometry>
        </mxCell>
        <mxCell id="jUhbXI_L2mKJ1Rviw_x4-5" value="" style="endArrow=none;html=1;rounded=0;" parent="jUhbXI_L2mKJ1Rviw_x4-1" edge="1">
          <mxGeometry width="50" height="50" relative="1" as="geometry">
            <mxPoint x="47.75510204081633" y="14.825761255848438" as="sourcePoint" />
            <mxPoint x="47.75510204081633" as="targetPoint" />
            <Array as="points">
              <mxPoint x="47.75510204081633" y="14.825761255848438" />
            </Array>
          </mxGeometry>
        </mxCell>
        <mxCell id="jUhbXI_L2mKJ1Rviw_x4-6" value="" style="endArrow=none;html=1;rounded=0;" parent="jUhbXI_L2mKJ1Rviw_x4-1" edge="1">
          <mxGeometry width="50" height="50" relative="1" as="geometry">
            <mxPoint x="31.836734693877556" y="14.825761255848438" as="sourcePoint" />
            <mxPoint x="31.836734693877556" as="targetPoint" />
          </mxGeometry>
        </mxCell>
        <mxCell id="jUhbXI_L2mKJ1Rviw_x4-7" value="" style="endArrow=none;html=1;rounded=0;" parent="jUhbXI_L2mKJ1Rviw_x4-1" edge="1">
          <mxGeometry width="50" height="50" relative="1" as="geometry">
            <mxPoint x="15.918367346938778" y="14.825761255848438" as="sourcePoint" />
            <mxPoint x="15.918367346938778" as="targetPoint" />
          </mxGeometry>
        </mxCell>
        <mxCell id="hjClthjIbymdZZ-AFwam-1" value="" style="group" parent="1" vertex="1" connectable="0">
          <mxGeometry x="533.67" y="74.02" width="17.908163265306122" height="75.98202643622324" as="geometry" />
        </mxCell>
        <mxCell id="hjClthjIbymdZZ-AFwam-2" value="" style="ellipse;whiteSpace=wrap;html=1;aspect=fixed;strokeWidth=0;" parent="hjClthjIbymdZZ-AFwam-1" vertex="1">
          <mxGeometry width="16.678981412829494" height="16.678981412829494" as="geometry" />
        </mxCell>
        <mxCell id="hjClthjIbymdZZ-AFwam-3" value="" style="ellipse;whiteSpace=wrap;html=1;aspect=fixed;strokeWidth=0;" parent="hjClthjIbymdZZ-AFwam-1" vertex="1">
          <mxGeometry y="16.678981412829494" width="16.678981412829494" height="16.678981412829494" as="geometry" />
        </mxCell>
        <mxCell id="hjClthjIbymdZZ-AFwam-4" value="" style="ellipse;whiteSpace=wrap;html=1;aspect=fixed;strokeWidth=0;direction=south;" parent="hjClthjIbymdZZ-AFwam-1" vertex="1">
          <mxGeometry y="59.30304502339375" width="16.678981412829494" height="16.678981412829494" as="geometry" />
        </mxCell>
        <mxCell id="hjClthjIbymdZZ-AFwam-5" value="" style="endArrow=none;dashed=1;html=1;dashPattern=1 3;strokeWidth=2;rounded=0;exitX=0;exitY=0.5;exitDx=0;exitDy=0;" parent="hjClthjIbymdZZ-AFwam-1" source="hjClthjIbymdZZ-AFwam-4" edge="1">
          <mxGeometry width="50" height="50" relative="1" as="geometry">
            <mxPoint x="8.691428571428583" y="48.18372408150743" as="sourcePoint" />
            <mxPoint x="8.691428571428583" y="33.35796282565899" as="targetPoint" />
          </mxGeometry>
        </mxCell>
        <mxCell id="hjClthjIbymdZZ-AFwam-6" value="" style="group" parent="1" vertex="1" connectable="0">
          <mxGeometry x="470" y="190.98000000000002" width="63.67346938775511" height="14.825761255848438" as="geometry" />
        </mxCell>
        <mxCell id="hjClthjIbymdZZ-AFwam-7" value="" style="endArrow=none;html=1;rounded=0;" parent="hjClthjIbymdZZ-AFwam-6" edge="1">
          <mxGeometry width="50" height="50" relative="1" as="geometry">
            <mxPoint as="sourcePoint" />
            <mxPoint x="63.67346938775511" as="targetPoint" />
          </mxGeometry>
        </mxCell>
        <mxCell id="hjClthjIbymdZZ-AFwam-8" value="" style="endArrow=none;html=1;rounded=0;" parent="hjClthjIbymdZZ-AFwam-6" edge="1">
          <mxGeometry width="50" height="50" relative="1" as="geometry">
            <mxPoint x="63.67346938775511" y="14.825761255848438" as="sourcePoint" />
            <mxPoint x="63.67346938775511" as="targetPoint" />
          </mxGeometry>
        </mxCell>
        <mxCell id="hjClthjIbymdZZ-AFwam-9" value="" style="endArrow=none;html=1;rounded=0;" parent="hjClthjIbymdZZ-AFwam-6" edge="1">
          <mxGeometry width="50" height="50" relative="1" as="geometry">
            <mxPoint y="14.825761255848438" as="sourcePoint" />
            <mxPoint x="63.67346938775511" y="14.825761255848438" as="targetPoint" />
          </mxGeometry>
        </mxCell>
        <mxCell id="hjClthjIbymdZZ-AFwam-10" value="" style="endArrow=none;html=1;rounded=0;" parent="hjClthjIbymdZZ-AFwam-6" edge="1">
          <mxGeometry width="50" height="50" relative="1" as="geometry">
            <mxPoint x="47.75510204081633" y="14.825761255848438" as="sourcePoint" />
            <mxPoint x="47.75510204081633" as="targetPoint" />
            <Array as="points">
              <mxPoint x="47.75510204081633" y="14.825761255848438" />
            </Array>
          </mxGeometry>
        </mxCell>
        <mxCell id="hjClthjIbymdZZ-AFwam-11" value="" style="endArrow=none;html=1;rounded=0;" parent="hjClthjIbymdZZ-AFwam-6" edge="1">
          <mxGeometry width="50" height="50" relative="1" as="geometry">
            <mxPoint x="31.836734693877556" y="14.825761255848438" as="sourcePoint" />
            <mxPoint x="31.836734693877556" as="targetPoint" />
          </mxGeometry>
        </mxCell>
        <mxCell id="hjClthjIbymdZZ-AFwam-12" value="" style="endArrow=none;html=1;rounded=0;" parent="hjClthjIbymdZZ-AFwam-6" edge="1">
          <mxGeometry width="50" height="50" relative="1" as="geometry">
            <mxPoint x="15.918367346938778" y="14.825761255848438" as="sourcePoint" />
            <mxPoint x="15.918367346938778" as="targetPoint" />
          </mxGeometry>
        </mxCell>
        <mxCell id="hjClthjIbymdZZ-AFwam-13" value="" style="group" parent="1" vertex="1" connectable="0">
          <mxGeometry x="533.67" y="160" width="17.908163265306122" height="75.98202643622324" as="geometry" />
        </mxCell>
        <mxCell id="hjClthjIbymdZZ-AFwam-14" value="" style="ellipse;whiteSpace=wrap;html=1;aspect=fixed;strokeWidth=0;" parent="hjClthjIbymdZZ-AFwam-13" vertex="1">
          <mxGeometry width="16.678981412829494" height="16.678981412829494" as="geometry" />
        </mxCell>
        <mxCell id="hjClthjIbymdZZ-AFwam-15" value="" style="ellipse;whiteSpace=wrap;html=1;aspect=fixed;strokeWidth=0;" parent="hjClthjIbymdZZ-AFwam-13" vertex="1">
          <mxGeometry y="16.678981412829494" width="16.678981412829494" height="16.678981412829494" as="geometry" />
        </mxCell>
        <mxCell id="hjClthjIbymdZZ-AFwam-16" value="" style="ellipse;whiteSpace=wrap;html=1;aspect=fixed;strokeWidth=0;direction=south;" parent="hjClthjIbymdZZ-AFwam-13" vertex="1">
          <mxGeometry y="59.30304502339375" width="16.678981412829494" height="16.678981412829494" as="geometry" />
        </mxCell>
        <mxCell id="hjClthjIbymdZZ-AFwam-17" value="" style="endArrow=none;dashed=1;html=1;dashPattern=1 3;strokeWidth=2;rounded=0;exitX=0;exitY=0.5;exitDx=0;exitDy=0;" parent="hjClthjIbymdZZ-AFwam-13" source="hjClthjIbymdZZ-AFwam-16" edge="1">
          <mxGeometry width="50" height="50" relative="1" as="geometry">
            <mxPoint x="8.691428571428583" y="48.18372408150743" as="sourcePoint" />
            <mxPoint x="8.691428571428583" y="33.35796282565899" as="targetPoint" />
          </mxGeometry>
        </mxCell>
        <mxCell id="hjClthjIbymdZZ-AFwam-18" value="" style="endArrow=openThin;html=1;rounded=0;endFill=0;" parent="1" edge="1">
          <mxGeometry width="50" height="50" relative="1" as="geometry">
            <mxPoint x="377" y="198" as="sourcePoint" />
            <mxPoint x="470" y="198" as="targetPoint" />
          </mxGeometry>
        </mxCell>
        <mxCell id="9moDIsOlo_BN7XgSZu5O-21" value="$$\lambda$$" style="text;html=1;align=center;verticalAlign=middle;resizable=0;points=[];autosize=1;strokeColor=none;fillColor=none;" parent="1" vertex="1">
          <mxGeometry x="60" y="348.34" width="90" height="30" as="geometry" />
        </mxCell>
      </root>
    </mxGraphModel>
  </diagram>
  <diagram name="Improved_Model" id="TC-XMDmaH_IDvd6har2z">
    <mxGraphModel dx="830" dy="481" grid="1" gridSize="10" guides="1" tooltips="1" connect="1" arrows="1" fold="1" page="1" pageScale="1" pageWidth="827" pageHeight="1169" math="1" shadow="0">
      <root>
        <mxCell id="aqfKTEB2q-6fqXY61QWh-0" />
        <mxCell id="aqfKTEB2q-6fqXY61QWh-1" parent="aqfKTEB2q-6fqXY61QWh-0" />
        <mxCell id="aqfKTEB2q-6fqXY61QWh-2" value="" style="group" vertex="1" connectable="0" parent="aqfKTEB2q-6fqXY61QWh-1">
          <mxGeometry x="176.6828571428572" y="355.93092935852525" width="63.67346938775511" height="14.825761255848438" as="geometry" />
        </mxCell>
        <mxCell id="aqfKTEB2q-6fqXY61QWh-3" value="" style="endArrow=none;html=1;rounded=0;" edge="1" parent="aqfKTEB2q-6fqXY61QWh-2">
          <mxGeometry width="50" height="50" relative="1" as="geometry">
            <mxPoint as="sourcePoint" />
            <mxPoint x="63.67346938775511" as="targetPoint" />
          </mxGeometry>
        </mxCell>
        <mxCell id="aqfKTEB2q-6fqXY61QWh-4" value="" style="endArrow=none;html=1;rounded=0;" edge="1" parent="aqfKTEB2q-6fqXY61QWh-2">
          <mxGeometry width="50" height="50" relative="1" as="geometry">
            <mxPoint x="63.67346938775511" y="14.825761255848438" as="sourcePoint" />
            <mxPoint x="63.67346938775511" as="targetPoint" />
          </mxGeometry>
        </mxCell>
        <mxCell id="aqfKTEB2q-6fqXY61QWh-5" value="" style="endArrow=none;html=1;rounded=0;" edge="1" parent="aqfKTEB2q-6fqXY61QWh-2">
          <mxGeometry width="50" height="50" relative="1" as="geometry">
            <mxPoint y="14.825761255848438" as="sourcePoint" />
            <mxPoint x="63.67346938775511" y="14.825761255848438" as="targetPoint" />
          </mxGeometry>
        </mxCell>
        <mxCell id="aqfKTEB2q-6fqXY61QWh-6" value="" style="endArrow=none;html=1;rounded=0;" edge="1" parent="aqfKTEB2q-6fqXY61QWh-2">
          <mxGeometry width="50" height="50" relative="1" as="geometry">
            <mxPoint x="47.75510204081633" y="14.825761255848438" as="sourcePoint" />
            <mxPoint x="47.75510204081633" as="targetPoint" />
          </mxGeometry>
        </mxCell>
        <mxCell id="aqfKTEB2q-6fqXY61QWh-7" value="" style="endArrow=none;html=1;rounded=0;" edge="1" parent="aqfKTEB2q-6fqXY61QWh-2">
          <mxGeometry width="50" height="50" relative="1" as="geometry">
            <mxPoint x="31.836734693877556" y="14.825761255848438" as="sourcePoint" />
            <mxPoint x="31.836734693877556" as="targetPoint" />
          </mxGeometry>
        </mxCell>
        <mxCell id="aqfKTEB2q-6fqXY61QWh-8" value="" style="endArrow=none;html=1;rounded=0;" edge="1" parent="aqfKTEB2q-6fqXY61QWh-2">
          <mxGeometry width="50" height="50" relative="1" as="geometry">
            <mxPoint x="15.918367346938778" y="14.825761255848438" as="sourcePoint" />
            <mxPoint x="15.918367346938778" as="targetPoint" />
          </mxGeometry>
        </mxCell>
        <mxCell id="aqfKTEB2q-6fqXY61QWh-9" value="Ingresso" style="text;html=1;align=center;verticalAlign=middle;whiteSpace=wrap;rounded=0;fontSize=12;" vertex="1" parent="aqfKTEB2q-6fqXY61QWh-1">
          <mxGeometry x="160.7644897959184" y="415.41188351698923" width="95.51020408163266" height="29.651522511696875" as="geometry" />
        </mxCell>
        <mxCell id="aqfKTEB2q-6fqXY61QWh-10" value="" style="group" vertex="1" connectable="0" parent="aqfKTEB2q-6fqXY61QWh-1">
          <mxGeometry x="240.3563265306123" y="324.4261866898473" width="17.908163265306122" height="75.98202643622324" as="geometry" />
        </mxCell>
        <mxCell id="aqfKTEB2q-6fqXY61QWh-11" value="" style="ellipse;whiteSpace=wrap;html=1;aspect=fixed;strokeWidth=0;" vertex="1" parent="aqfKTEB2q-6fqXY61QWh-10">
          <mxGeometry width="16.678981412829494" height="16.678981412829494" as="geometry" />
        </mxCell>
        <mxCell id="aqfKTEB2q-6fqXY61QWh-12" value="" style="ellipse;whiteSpace=wrap;html=1;aspect=fixed;strokeWidth=0;" vertex="1" parent="aqfKTEB2q-6fqXY61QWh-10">
          <mxGeometry y="16.678981412829494" width="16.678981412829494" height="16.678981412829494" as="geometry" />
        </mxCell>
        <mxCell id="aqfKTEB2q-6fqXY61QWh-13" value="" style="ellipse;whiteSpace=wrap;html=1;aspect=fixed;strokeWidth=0;direction=south;" vertex="1" parent="aqfKTEB2q-6fqXY61QWh-10">
          <mxGeometry y="59.30304502339375" width="16.678981412829494" height="16.678981412829494" as="geometry" />
        </mxCell>
        <mxCell id="aqfKTEB2q-6fqXY61QWh-14" value="" style="endArrow=none;dashed=1;html=1;dashPattern=1 3;strokeWidth=2;rounded=0;exitX=0;exitY=0.5;exitDx=0;exitDy=0;" edge="1" parent="aqfKTEB2q-6fqXY61QWh-10" source="aqfKTEB2q-6fqXY61QWh-13">
          <mxGeometry width="50" height="50" relative="1" as="geometry">
            <mxPoint x="8.691428571428583" y="48.18372408150743" as="sourcePoint" />
            <mxPoint x="8.691428571428583" y="33.35796282565899" as="targetPoint" />
          </mxGeometry>
        </mxCell>
        <mxCell id="aqfKTEB2q-6fqXY61QWh-15" value="" style="endArrow=openThin;html=1;rounded=0;endFill=0;" edge="1" parent="aqfKTEB2q-6fqXY61QWh-1">
          <mxGeometry width="50" height="50" relative="1" as="geometry">
            <mxPoint x="114.9991836734694" y="363.3438099864495" as="sourcePoint" />
            <mxPoint x="176.6828571428572" y="363.58102216654305" as="targetPoint" />
          </mxGeometry>
        </mxCell>
        <mxCell id="aqfKTEB2q-6fqXY61QWh-16" value="" style="endArrow=openThin;html=1;rounded=0;endFill=0;startArrow=none;startFill=0;" edge="1" parent="aqfKTEB2q-6fqXY61QWh-1">
          <mxGeometry width="50" height="50" relative="1" as="geometry">
            <mxPoint x="258.26448979591845" y="362.17257484723746" as="sourcePoint" />
            <mxPoint x="430" y="362" as="targetPoint" />
          </mxGeometry>
        </mxCell>
        <mxCell id="aqfKTEB2q-6fqXY61QWh-17" value="$$p_a$$" style="edgeLabel;html=1;align=center;verticalAlign=middle;resizable=0;points=[];labelBackgroundColor=none;" vertex="1" connectable="0" parent="aqfKTEB2q-6fqXY61QWh-16">
          <mxGeometry x="0.6423" y="-1" relative="1" as="geometry">
            <mxPoint y="-14" as="offset" />
          </mxGeometry>
        </mxCell>
        <mxCell id="aqfKTEB2q-6fqXY61QWh-18" value="" style="endArrow=none;html=1;rounded=0;endFill=0;startArrow=openThin;startFill=0;" edge="1" parent="aqfKTEB2q-6fqXY61QWh-1">
          <mxGeometry width="50" height="50" relative="1" as="geometry">
            <mxPoint x="377.2542857142858" y="430.23764477283765" as="sourcePoint" />
            <mxPoint x="377.2542857142858" y="362.03914299593487" as="targetPoint" />
          </mxGeometry>
        </mxCell>
        <mxCell id="aqfKTEB2q-6fqXY61QWh-19" value="$$p_e$$" style="edgeLabel;html=1;align=center;verticalAlign=middle;resizable=0;points=[];labelBackgroundColor=none;" vertex="1" connectable="0" parent="aqfKTEB2q-6fqXY61QWh-18">
          <mxGeometry x="0.2638" y="1" relative="1" as="geometry">
            <mxPoint x="-8" y="7" as="offset" />
          </mxGeometry>
        </mxCell>
        <mxCell id="aqfKTEB2q-6fqXY61QWh-20" value="" style="endArrow=none;html=1;rounded=0;endFill=0;startArrow=openThin;startFill=0;" edge="1" parent="aqfKTEB2q-6fqXY61QWh-1">
          <mxGeometry width="50" height="50" relative="1" as="geometry">
            <mxPoint x="313.5808163265307" y="362.9731659550533" as="sourcePoint" />
            <mxPoint x="313.5808163265307" y="60.70554547081532" as="targetPoint" />
          </mxGeometry>
        </mxCell>
        <mxCell id="aqfKTEB2q-6fqXY61QWh-21" value="" style="endArrow=none;html=1;rounded=0;" edge="1" parent="aqfKTEB2q-6fqXY61QWh-1">
          <mxGeometry width="50" height="50" relative="1" as="geometry">
            <mxPoint x="430" y="430" as="sourcePoint" />
            <mxPoint x="430.00448979591846" y="316.6315547260502" as="targetPoint" />
          </mxGeometry>
        </mxCell>
        <mxCell id="aqfKTEB2q-6fqXY61QWh-77" value="" style="endArrow=none;html=1;rounded=0;" edge="1" parent="aqfKTEB2q-6fqXY61QWh-1">
          <mxGeometry width="50" height="50" relative="1" as="geometry">
            <mxPoint x="636" y="430" as="sourcePoint" />
            <mxPoint x="636" y="318" as="targetPoint" />
          </mxGeometry>
        </mxCell>
        <mxCell id="aqfKTEB2q-6fqXY61QWh-78" value="" style="endArrow=openThin;html=1;rounded=0;endFill=0;" edge="1" parent="aqfKTEB2q-6fqXY61QWh-1">
          <mxGeometry width="50" height="50" relative="1" as="geometry">
            <mxPoint x="576" y="318" as="sourcePoint" />
            <mxPoint x="636" y="318" as="targetPoint" />
          </mxGeometry>
        </mxCell>
        <mxCell id="aqfKTEB2q-6fqXY61QWh-79" value="" style="endArrow=openThin;html=1;rounded=0;endFill=0;" edge="1" parent="aqfKTEB2q-6fqXY61QWh-1">
          <mxGeometry width="50" height="50" relative="1" as="geometry">
            <mxPoint x="576" y="430" as="sourcePoint" />
            <mxPoint x="636" y="430" as="targetPoint" />
          </mxGeometry>
        </mxCell>
        <mxCell id="aqfKTEB2q-6fqXY61QWh-80" value="" style="endArrow=none;html=1;rounded=0;" edge="1" parent="aqfKTEB2q-6fqXY61QWh-1">
          <mxGeometry width="50" height="50" relative="1" as="geometry">
            <mxPoint x="712" y="365" as="sourcePoint" />
            <mxPoint x="712" y="59" as="targetPoint" />
          </mxGeometry>
        </mxCell>
        <mxCell id="aqfKTEB2q-6fqXY61QWh-81" value="" style="endArrow=none;html=1;rounded=0;" edge="1" parent="aqfKTEB2q-6fqXY61QWh-1">
          <mxGeometry width="50" height="50" relative="1" as="geometry">
            <mxPoint x="313.5808163265307" y="59.59361337662669" as="sourcePoint" />
            <mxPoint x="711.5400000000001" y="59.59361337662669" as="targetPoint" />
          </mxGeometry>
        </mxCell>
        <mxCell id="aqfKTEB2q-6fqXY61QWh-82" value="Area&amp;nbsp;&lt;span style=&quot;background-color: initial;&quot;&gt;Attrazioni&lt;/span&gt;" style="text;html=1;align=center;verticalAlign=middle;whiteSpace=wrap;rounded=0;fontSize=12;" vertex="1" parent="aqfKTEB2q-6fqXY61QWh-1">
          <mxGeometry x="560.0012244897958" y="469.99871705059695" width="95.51020408163266" height="44.477283767545316" as="geometry" />
        </mxCell>
        <mxCell id="aqfKTEB2q-6fqXY61QWh-83" value="" style="endArrow=none;dashed=1;html=1;dashPattern=1 3;strokeWidth=2;rounded=0;" edge="1" parent="aqfKTEB2q-6fqXY61QWh-1">
          <mxGeometry width="50" height="50" relative="1" as="geometry">
            <mxPoint x="504.9487755102042" y="374.0687945184465" as="sourcePoint" />
            <mxPoint x="552.7038775510205" y="374.0687945184465" as="targetPoint" />
          </mxGeometry>
        </mxCell>
        <mxCell id="aqfKTEB2q-6fqXY61QWh-84" value="Area Ristoro" style="text;html=1;align=center;verticalAlign=middle;whiteSpace=wrap;rounded=0;fontSize=12;" vertex="1" parent="aqfKTEB2q-6fqXY61QWh-1">
          <mxGeometry x="551.575918367347" y="219.99716232454685" width="95.51020408163266" height="44.477283767545316" as="geometry" />
        </mxCell>
        <mxCell id="aqfKTEB2q-6fqXY61QWh-85" value="" style="endArrow=openThin;html=1;rounded=0;endFill=0;" edge="1" parent="aqfKTEB2q-6fqXY61QWh-1">
          <mxGeometry width="50" height="50" relative="1" as="geometry">
            <mxPoint x="377" y="112" as="sourcePoint" />
            <mxPoint x="469.76448979591845" y="112.0619824610743" as="targetPoint" />
          </mxGeometry>
        </mxCell>
        <mxCell id="aqfKTEB2q-6fqXY61QWh-86" value="$$p_{r_i}$$" style="edgeLabel;html=1;align=center;verticalAlign=middle;resizable=0;points=[];labelBackgroundColor=none;" vertex="1" connectable="0" parent="aqfKTEB2q-6fqXY61QWh-85">
          <mxGeometry x="-0.0837" relative="1" as="geometry">
            <mxPoint y="-13" as="offset" />
          </mxGeometry>
        </mxCell>
        <mxCell id="aqfKTEB2q-6fqXY61QWh-87" value="" style="endArrow=none;html=1;rounded=0;" edge="1" parent="aqfKTEB2q-6fqXY61QWh-1">
          <mxGeometry width="50" height="50" relative="1" as="geometry">
            <mxPoint x="600" y="199" as="sourcePoint" />
            <mxPoint x="599.3473469387754" y="110.07089714417201" as="targetPoint" />
          </mxGeometry>
        </mxCell>
        <mxCell id="aqfKTEB2q-6fqXY61QWh-88" value="" style="endArrow=openThin;html=1;rounded=0;endFill=0;" edge="1" parent="aqfKTEB2q-6fqXY61QWh-1">
          <mxGeometry width="50" height="50" relative="1" as="geometry">
            <mxPoint x="554.3461224489797" y="112.0619824610743" as="sourcePoint" />
            <mxPoint x="600.1114285714285" y="111.48377777209622" as="targetPoint" />
          </mxGeometry>
        </mxCell>
        <mxCell id="aqfKTEB2q-6fqXY61QWh-89" value="" style="endArrow=openThin;html=1;rounded=0;endFill=0;" edge="1" parent="aqfKTEB2q-6fqXY61QWh-1">
          <mxGeometry width="50" height="50" relative="1" as="geometry">
            <mxPoint x="554.3461224489797" y="198.57747091759774" as="sourcePoint" />
            <mxPoint x="600.1114285714285" y="197.99926622861966" as="targetPoint" />
          </mxGeometry>
        </mxCell>
        <mxCell id="aqfKTEB2q-6fqXY61QWh-90" value="" style="endArrow=openThin;html=1;rounded=0;endFill=0;" edge="1" parent="aqfKTEB2q-6fqXY61QWh-1">
          <mxGeometry width="50" height="50" relative="1" as="geometry">
            <mxPoint x="600.1114285714285" y="153.7224196558689" as="sourcePoint" />
            <mxPoint x="711.5400000000001" y="153.7224196558689" as="targetPoint" />
          </mxGeometry>
        </mxCell>
        <mxCell id="aqfKTEB2q-6fqXY61QWh-91" value="" style="endArrow=openThin;html=1;rounded=0;endFill=0;" edge="1" parent="aqfKTEB2q-6fqXY61QWh-1">
          <mxGeometry width="50" height="50" relative="1" as="geometry">
            <mxPoint x="637" y="364" as="sourcePoint" />
            <mxPoint x="710" y="364" as="targetPoint" />
          </mxGeometry>
        </mxCell>
        <mxCell id="aqfKTEB2q-6fqXY61QWh-92" value="" style="endArrow=none;dashed=1;html=1;dashPattern=1 3;strokeWidth=2;rounded=0;" edge="1" parent="aqfKTEB2q-6fqXY61QWh-1">
          <mxGeometry width="50" height="50" relative="1" as="geometry">
            <mxPoint x="471.59448979591843" y="151.63992738987037" as="sourcePoint" />
            <mxPoint x="535.2679591836735" y="151.0024196558689" as="targetPoint" />
            <Array as="points">
              <mxPoint x="510" y="151" />
            </Array>
          </mxGeometry>
        </mxCell>
        <mxCell id="aqfKTEB2q-6fqXY61QWh-93" value="" style="endArrow=none;html=1;rounded=0;" edge="1" parent="aqfKTEB2q-6fqXY61QWh-1">
          <mxGeometry width="50" height="50" relative="1" as="geometry">
            <mxPoint x="377" y="362.93" as="sourcePoint" />
            <mxPoint x="377" y="112" as="targetPoint" />
          </mxGeometry>
        </mxCell>
        <mxCell id="aqfKTEB2q-6fqXY61QWh-94" value="$$p_r$$" style="edgeLabel;html=1;align=center;verticalAlign=middle;resizable=0;points=[];labelBackgroundColor=none;" vertex="1" connectable="0" parent="aqfKTEB2q-6fqXY61QWh-93">
          <mxGeometry x="-0.6464" y="1" relative="1" as="geometry">
            <mxPoint x="-8" y="-1" as="offset" />
          </mxGeometry>
        </mxCell>
        <mxCell id="aqfKTEB2q-6fqXY61QWh-95" value="" style="group" vertex="1" connectable="0" parent="aqfKTEB2q-6fqXY61QWh-1">
          <mxGeometry x="470" y="105" width="63.67346938775511" height="14.825761255848438" as="geometry" />
        </mxCell>
        <mxCell id="aqfKTEB2q-6fqXY61QWh-96" value="" style="endArrow=none;html=1;rounded=0;" edge="1" parent="aqfKTEB2q-6fqXY61QWh-95">
          <mxGeometry width="50" height="50" relative="1" as="geometry">
            <mxPoint as="sourcePoint" />
            <mxPoint x="63.67346938775511" as="targetPoint" />
          </mxGeometry>
        </mxCell>
        <mxCell id="aqfKTEB2q-6fqXY61QWh-97" value="" style="endArrow=none;html=1;rounded=0;" edge="1" parent="aqfKTEB2q-6fqXY61QWh-95">
          <mxGeometry width="50" height="50" relative="1" as="geometry">
            <mxPoint x="63.67346938775511" y="14.825761255848438" as="sourcePoint" />
            <mxPoint x="63.67346938775511" as="targetPoint" />
          </mxGeometry>
        </mxCell>
        <mxCell id="aqfKTEB2q-6fqXY61QWh-98" value="" style="endArrow=none;html=1;rounded=0;" edge="1" parent="aqfKTEB2q-6fqXY61QWh-95">
          <mxGeometry width="50" height="50" relative="1" as="geometry">
            <mxPoint y="14.825761255848438" as="sourcePoint" />
            <mxPoint x="63.67346938775511" y="14.825761255848438" as="targetPoint" />
          </mxGeometry>
        </mxCell>
        <mxCell id="aqfKTEB2q-6fqXY61QWh-99" value="" style="endArrow=none;html=1;rounded=0;" edge="1" parent="aqfKTEB2q-6fqXY61QWh-95">
          <mxGeometry width="50" height="50" relative="1" as="geometry">
            <mxPoint x="47.75510204081633" y="14.825761255848438" as="sourcePoint" />
            <mxPoint x="47.75510204081633" as="targetPoint" />
            <Array as="points">
              <mxPoint x="47.75510204081633" y="14.825761255848438" />
            </Array>
          </mxGeometry>
        </mxCell>
        <mxCell id="aqfKTEB2q-6fqXY61QWh-100" value="" style="endArrow=none;html=1;rounded=0;" edge="1" parent="aqfKTEB2q-6fqXY61QWh-95">
          <mxGeometry width="50" height="50" relative="1" as="geometry">
            <mxPoint x="31.836734693877556" y="14.825761255848438" as="sourcePoint" />
            <mxPoint x="31.836734693877556" as="targetPoint" />
          </mxGeometry>
        </mxCell>
        <mxCell id="aqfKTEB2q-6fqXY61QWh-101" value="" style="endArrow=none;html=1;rounded=0;" edge="1" parent="aqfKTEB2q-6fqXY61QWh-95">
          <mxGeometry width="50" height="50" relative="1" as="geometry">
            <mxPoint x="15.918367346938778" y="14.825761255848438" as="sourcePoint" />
            <mxPoint x="15.918367346938778" as="targetPoint" />
          </mxGeometry>
        </mxCell>
        <mxCell id="aqfKTEB2q-6fqXY61QWh-102" value="" style="group" vertex="1" connectable="0" parent="aqfKTEB2q-6fqXY61QWh-1">
          <mxGeometry x="533.67" y="74.02" width="17.908163265306122" height="75.98202643622324" as="geometry" />
        </mxCell>
        <mxCell id="aqfKTEB2q-6fqXY61QWh-103" value="" style="ellipse;whiteSpace=wrap;html=1;aspect=fixed;strokeWidth=0;" vertex="1" parent="aqfKTEB2q-6fqXY61QWh-102">
          <mxGeometry width="16.678981412829494" height="16.678981412829494" as="geometry" />
        </mxCell>
        <mxCell id="aqfKTEB2q-6fqXY61QWh-104" value="" style="ellipse;whiteSpace=wrap;html=1;aspect=fixed;strokeWidth=0;" vertex="1" parent="aqfKTEB2q-6fqXY61QWh-102">
          <mxGeometry y="16.678981412829494" width="16.678981412829494" height="16.678981412829494" as="geometry" />
        </mxCell>
        <mxCell id="aqfKTEB2q-6fqXY61QWh-105" value="" style="ellipse;whiteSpace=wrap;html=1;aspect=fixed;strokeWidth=0;direction=south;" vertex="1" parent="aqfKTEB2q-6fqXY61QWh-102">
          <mxGeometry y="59.30304502339375" width="16.678981412829494" height="16.678981412829494" as="geometry" />
        </mxCell>
        <mxCell id="aqfKTEB2q-6fqXY61QWh-106" value="" style="endArrow=none;dashed=1;html=1;dashPattern=1 3;strokeWidth=2;rounded=0;exitX=0;exitY=0.5;exitDx=0;exitDy=0;" edge="1" parent="aqfKTEB2q-6fqXY61QWh-102" source="aqfKTEB2q-6fqXY61QWh-105">
          <mxGeometry width="50" height="50" relative="1" as="geometry">
            <mxPoint x="8.691428571428583" y="48.18372408150743" as="sourcePoint" />
            <mxPoint x="8.691428571428583" y="33.35796282565899" as="targetPoint" />
          </mxGeometry>
        </mxCell>
        <mxCell id="aqfKTEB2q-6fqXY61QWh-107" value="" style="group" vertex="1" connectable="0" parent="aqfKTEB2q-6fqXY61QWh-1">
          <mxGeometry x="470" y="190.98000000000002" width="63.67346938775511" height="14.825761255848438" as="geometry" />
        </mxCell>
        <mxCell id="aqfKTEB2q-6fqXY61QWh-108" value="" style="endArrow=none;html=1;rounded=0;" edge="1" parent="aqfKTEB2q-6fqXY61QWh-107">
          <mxGeometry width="50" height="50" relative="1" as="geometry">
            <mxPoint as="sourcePoint" />
            <mxPoint x="63.67346938775511" as="targetPoint" />
          </mxGeometry>
        </mxCell>
        <mxCell id="aqfKTEB2q-6fqXY61QWh-109" value="" style="endArrow=none;html=1;rounded=0;" edge="1" parent="aqfKTEB2q-6fqXY61QWh-107">
          <mxGeometry width="50" height="50" relative="1" as="geometry">
            <mxPoint x="63.67346938775511" y="14.825761255848438" as="sourcePoint" />
            <mxPoint x="63.67346938775511" as="targetPoint" />
          </mxGeometry>
        </mxCell>
        <mxCell id="aqfKTEB2q-6fqXY61QWh-110" value="" style="endArrow=none;html=1;rounded=0;" edge="1" parent="aqfKTEB2q-6fqXY61QWh-107">
          <mxGeometry width="50" height="50" relative="1" as="geometry">
            <mxPoint y="14.825761255848438" as="sourcePoint" />
            <mxPoint x="63.67346938775511" y="14.825761255848438" as="targetPoint" />
          </mxGeometry>
        </mxCell>
        <mxCell id="aqfKTEB2q-6fqXY61QWh-111" value="" style="endArrow=none;html=1;rounded=0;" edge="1" parent="aqfKTEB2q-6fqXY61QWh-107">
          <mxGeometry width="50" height="50" relative="1" as="geometry">
            <mxPoint x="47.75510204081633" y="14.825761255848438" as="sourcePoint" />
            <mxPoint x="47.75510204081633" as="targetPoint" />
            <Array as="points">
              <mxPoint x="47.75510204081633" y="14.825761255848438" />
            </Array>
          </mxGeometry>
        </mxCell>
        <mxCell id="aqfKTEB2q-6fqXY61QWh-112" value="" style="endArrow=none;html=1;rounded=0;" edge="1" parent="aqfKTEB2q-6fqXY61QWh-107">
          <mxGeometry width="50" height="50" relative="1" as="geometry">
            <mxPoint x="31.836734693877556" y="14.825761255848438" as="sourcePoint" />
            <mxPoint x="31.836734693877556" as="targetPoint" />
          </mxGeometry>
        </mxCell>
        <mxCell id="aqfKTEB2q-6fqXY61QWh-113" value="" style="endArrow=none;html=1;rounded=0;" edge="1" parent="aqfKTEB2q-6fqXY61QWh-107">
          <mxGeometry width="50" height="50" relative="1" as="geometry">
            <mxPoint x="15.918367346938778" y="14.825761255848438" as="sourcePoint" />
            <mxPoint x="15.918367346938778" as="targetPoint" />
          </mxGeometry>
        </mxCell>
        <mxCell id="aqfKTEB2q-6fqXY61QWh-114" value="" style="group" vertex="1" connectable="0" parent="aqfKTEB2q-6fqXY61QWh-1">
          <mxGeometry x="533.67" y="160" width="17.908163265306122" height="75.98202643622324" as="geometry" />
        </mxCell>
        <mxCell id="aqfKTEB2q-6fqXY61QWh-115" value="" style="ellipse;whiteSpace=wrap;html=1;aspect=fixed;strokeWidth=0;" vertex="1" parent="aqfKTEB2q-6fqXY61QWh-114">
          <mxGeometry width="16.678981412829494" height="16.678981412829494" as="geometry" />
        </mxCell>
        <mxCell id="aqfKTEB2q-6fqXY61QWh-116" value="" style="ellipse;whiteSpace=wrap;html=1;aspect=fixed;strokeWidth=0;" vertex="1" parent="aqfKTEB2q-6fqXY61QWh-114">
          <mxGeometry y="16.678981412829494" width="16.678981412829494" height="16.678981412829494" as="geometry" />
        </mxCell>
        <mxCell id="aqfKTEB2q-6fqXY61QWh-117" value="" style="ellipse;whiteSpace=wrap;html=1;aspect=fixed;strokeWidth=0;direction=south;" vertex="1" parent="aqfKTEB2q-6fqXY61QWh-114">
          <mxGeometry y="59.30304502339375" width="16.678981412829494" height="16.678981412829494" as="geometry" />
        </mxCell>
        <mxCell id="aqfKTEB2q-6fqXY61QWh-118" value="" style="endArrow=none;dashed=1;html=1;dashPattern=1 3;strokeWidth=2;rounded=0;exitX=0;exitY=0.5;exitDx=0;exitDy=0;" edge="1" parent="aqfKTEB2q-6fqXY61QWh-114" source="aqfKTEB2q-6fqXY61QWh-117">
          <mxGeometry width="50" height="50" relative="1" as="geometry">
            <mxPoint x="8.691428571428583" y="48.18372408150743" as="sourcePoint" />
            <mxPoint x="8.691428571428583" y="33.35796282565899" as="targetPoint" />
          </mxGeometry>
        </mxCell>
        <mxCell id="aqfKTEB2q-6fqXY61QWh-119" value="" style="endArrow=openThin;html=1;rounded=0;endFill=0;" edge="1" parent="aqfKTEB2q-6fqXY61QWh-1">
          <mxGeometry width="50" height="50" relative="1" as="geometry">
            <mxPoint x="377" y="198" as="sourcePoint" />
            <mxPoint x="470" y="198" as="targetPoint" />
          </mxGeometry>
        </mxCell>
        <mxCell id="aqfKTEB2q-6fqXY61QWh-120" value="$$\lambda$$" style="text;html=1;align=center;verticalAlign=middle;resizable=0;points=[];autosize=1;strokeColor=none;fillColor=none;" vertex="1" parent="aqfKTEB2q-6fqXY61QWh-1">
          <mxGeometry x="60" y="348.34" width="90" height="30" as="geometry" />
        </mxCell>
        <mxCell id="aqfKTEB2q-6fqXY61QWh-76" value="" style="endArrow=none;html=1;rounded=0;" edge="1" parent="aqfKTEB2q-6fqXY61QWh-1">
          <mxGeometry width="50" height="50" relative="1" as="geometry">
            <mxPoint x="430" y="430" as="sourcePoint" />
            <mxPoint x="464" y="430" as="targetPoint" />
          </mxGeometry>
        </mxCell>
        <mxCell id="Ys-BqoRaEP9z7KlwW_o9-21" value="" style="group" vertex="1" connectable="0" parent="aqfKTEB2q-6fqXY61QWh-1">
          <mxGeometry x="463.42857142857144" y="391.1966906143737" width="113.42285714285725" height="76.07907064147469" as="geometry" />
        </mxCell>
        <mxCell id="Ys-BqoRaEP9z7KlwW_o9-1" value="" style="group" vertex="1" connectable="0" parent="Ys-BqoRaEP9z7KlwW_o9-21">
          <mxGeometry x="31.841428571428537" y="61.25330938562627" width="63.67346938775511" height="14.825761255848438" as="geometry" />
        </mxCell>
        <mxCell id="Ys-BqoRaEP9z7KlwW_o9-2" value="" style="endArrow=none;html=1;rounded=0;" edge="1" parent="Ys-BqoRaEP9z7KlwW_o9-1">
          <mxGeometry width="50" height="50" relative="1" as="geometry">
            <mxPoint as="sourcePoint" />
            <mxPoint x="63.67346938775511" as="targetPoint" />
          </mxGeometry>
        </mxCell>
        <mxCell id="Ys-BqoRaEP9z7KlwW_o9-3" value="" style="endArrow=none;html=1;rounded=0;" edge="1" parent="Ys-BqoRaEP9z7KlwW_o9-1">
          <mxGeometry width="50" height="50" relative="1" as="geometry">
            <mxPoint x="63.67346938775511" y="14.825761255848438" as="sourcePoint" />
            <mxPoint x="63.67346938775511" as="targetPoint" />
          </mxGeometry>
        </mxCell>
        <mxCell id="Ys-BqoRaEP9z7KlwW_o9-4" value="" style="endArrow=none;html=1;rounded=0;" edge="1" parent="Ys-BqoRaEP9z7KlwW_o9-1">
          <mxGeometry width="50" height="50" relative="1" as="geometry">
            <mxPoint y="14.825761255848438" as="sourcePoint" />
            <mxPoint x="63.67346938775511" y="14.825761255848438" as="targetPoint" />
          </mxGeometry>
        </mxCell>
        <mxCell id="Ys-BqoRaEP9z7KlwW_o9-5" value="" style="endArrow=none;html=1;rounded=0;" edge="1" parent="Ys-BqoRaEP9z7KlwW_o9-1">
          <mxGeometry width="50" height="50" relative="1" as="geometry">
            <mxPoint x="47.75510204081633" y="14.825761255848438" as="sourcePoint" />
            <mxPoint x="47.75510204081633" as="targetPoint" />
            <Array as="points">
              <mxPoint x="47.75510204081633" y="14.825761255848438" />
            </Array>
          </mxGeometry>
        </mxCell>
        <mxCell id="Ys-BqoRaEP9z7KlwW_o9-6" value="" style="endArrow=none;html=1;rounded=0;" edge="1" parent="Ys-BqoRaEP9z7KlwW_o9-1">
          <mxGeometry width="50" height="50" relative="1" as="geometry">
            <mxPoint x="31.836734693877556" y="14.825761255848438" as="sourcePoint" />
            <mxPoint x="31.836734693877556" as="targetPoint" />
          </mxGeometry>
        </mxCell>
        <mxCell id="Ys-BqoRaEP9z7KlwW_o9-7" value="" style="endArrow=none;html=1;rounded=0;" edge="1" parent="Ys-BqoRaEP9z7KlwW_o9-1">
          <mxGeometry width="50" height="50" relative="1" as="geometry">
            <mxPoint x="15.918367346938778" y="14.825761255848438" as="sourcePoint" />
            <mxPoint x="15.918367346938778" as="targetPoint" />
          </mxGeometry>
        </mxCell>
        <mxCell id="Ys-BqoRaEP9z7KlwW_o9-12" value="" style="endArrow=openThin;html=1;rounded=0;endFill=0;" edge="1" parent="Ys-BqoRaEP9z7KlwW_o9-21">
          <mxGeometry width="50" height="50" relative="1" as="geometry">
            <mxPoint y="69.26813514688217" as="sourcePoint" />
            <mxPoint x="31.836734693877588" y="69.25330938562627" as="targetPoint" />
          </mxGeometry>
        </mxCell>
        <mxCell id="Ys-BqoRaEP9z7KlwW_o9-0" value="" style="endArrow=none;html=1;rounded=0;" edge="1" parent="Ys-BqoRaEP9z7KlwW_o9-21">
          <mxGeometry width="50" height="50" relative="1" as="geometry">
            <mxPoint x="0.19142857142855974" y="69.81330938562621" as="sourcePoint" />
            <mxPoint x="0.19142857142855974" y="9.813309385626269" as="targetPoint" />
          </mxGeometry>
        </mxCell>
        <mxCell id="aqfKTEB2q-6fqXY61QWh-73" value="" style="endArrow=openThin;html=1;rounded=0;endFill=0;" edge="1" parent="Ys-BqoRaEP9z7KlwW_o9-21">
          <mxGeometry width="50" height="50" relative="1" as="geometry">
            <mxPoint x="0.27448979591844136" y="7.681376780098674" as="sourcePoint" />
            <mxPoint x="32.11122448979597" y="7.666551018842824" as="targetPoint" />
          </mxGeometry>
        </mxCell>
        <mxCell id="aqfKTEB2q-6fqXY61QWh-74" value="" style="endArrow=openThin;html=1;rounded=0;endFill=0;" edge="1" parent="Ys-BqoRaEP9z7KlwW_o9-21">
          <mxGeometry width="50" height="50" relative="1" as="geometry">
            <mxPoint x="0.27448979591844136" y="38.81547541738041" as="sourcePoint" />
            <mxPoint x="32.11122448979597" y="38.800649656124506" as="targetPoint" />
          </mxGeometry>
        </mxCell>
        <mxCell id="aqfKTEB2q-6fqXY61QWh-75" value="" style="endArrow=none;html=1;rounded=0;" edge="1" parent="Ys-BqoRaEP9z7KlwW_o9-21">
          <mxGeometry width="50" height="50" relative="1" as="geometry">
            <mxPoint x="0.27448979591844136" y="38.25209648965813" as="sourcePoint" />
            <mxPoint x="0.27448979591844136" y="8.60057397796129" as="targetPoint" />
          </mxGeometry>
        </mxCell>
        <mxCell id="aqfKTEB2q-6fqXY61QWh-53" value="" style="group" vertex="1" connectable="0" parent="Ys-BqoRaEP9z7KlwW_o9-21">
          <mxGeometry x="31.84122448979599" y="1.009784214966885" width="63.67346938775512" height="14.825761255848438" as="geometry" />
        </mxCell>
        <mxCell id="aqfKTEB2q-6fqXY61QWh-54" value="" style="endArrow=none;html=1;rounded=0;" edge="1" parent="aqfKTEB2q-6fqXY61QWh-53">
          <mxGeometry width="50" height="50" relative="1" as="geometry">
            <mxPoint as="sourcePoint" />
            <mxPoint x="63.67346938775512" as="targetPoint" />
          </mxGeometry>
        </mxCell>
        <mxCell id="aqfKTEB2q-6fqXY61QWh-55" value="" style="endArrow=none;html=1;rounded=0;" edge="1" parent="aqfKTEB2q-6fqXY61QWh-53">
          <mxGeometry width="50" height="50" relative="1" as="geometry">
            <mxPoint x="63.67346938775512" y="14.825761255848438" as="sourcePoint" />
            <mxPoint x="63.67346938775512" as="targetPoint" />
          </mxGeometry>
        </mxCell>
        <mxCell id="aqfKTEB2q-6fqXY61QWh-56" value="" style="endArrow=none;html=1;rounded=0;" edge="1" parent="aqfKTEB2q-6fqXY61QWh-53">
          <mxGeometry width="50" height="50" relative="1" as="geometry">
            <mxPoint y="14.825761255848438" as="sourcePoint" />
            <mxPoint x="63.67346938775512" y="14.825761255848438" as="targetPoint" />
          </mxGeometry>
        </mxCell>
        <mxCell id="aqfKTEB2q-6fqXY61QWh-57" value="" style="endArrow=none;html=1;rounded=0;" edge="1" parent="aqfKTEB2q-6fqXY61QWh-53">
          <mxGeometry width="50" height="50" relative="1" as="geometry">
            <mxPoint x="47.75510204081634" y="14.825761255848438" as="sourcePoint" />
            <mxPoint x="47.75510204081634" as="targetPoint" />
          </mxGeometry>
        </mxCell>
        <mxCell id="aqfKTEB2q-6fqXY61QWh-58" value="" style="endArrow=none;html=1;rounded=0;" edge="1" parent="aqfKTEB2q-6fqXY61QWh-53">
          <mxGeometry width="50" height="50" relative="1" as="geometry">
            <mxPoint x="31.83673469387756" y="14.825761255848438" as="sourcePoint" />
            <mxPoint x="31.83673469387756" as="targetPoint" />
          </mxGeometry>
        </mxCell>
        <mxCell id="aqfKTEB2q-6fqXY61QWh-59" value="" style="endArrow=none;html=1;rounded=0;" edge="1" parent="aqfKTEB2q-6fqXY61QWh-53">
          <mxGeometry width="50" height="50" relative="1" as="geometry">
            <mxPoint x="15.91836734693878" y="14.825761255848438" as="sourcePoint" />
            <mxPoint x="15.91836734693878" as="targetPoint" />
          </mxGeometry>
        </mxCell>
        <mxCell id="aqfKTEB2q-6fqXY61QWh-60" value="" style="group" vertex="1" connectable="0" parent="Ys-BqoRaEP9z7KlwW_o9-21">
          <mxGeometry x="31.84122448979599" y="31.580503924526397" width="63.67346938775512" height="14.825761255848438" as="geometry" />
        </mxCell>
        <mxCell id="aqfKTEB2q-6fqXY61QWh-61" value="" style="endArrow=none;html=1;rounded=0;" edge="1" parent="aqfKTEB2q-6fqXY61QWh-60">
          <mxGeometry width="50" height="50" relative="1" as="geometry">
            <mxPoint as="sourcePoint" />
            <mxPoint x="63.67346938775512" as="targetPoint" />
          </mxGeometry>
        </mxCell>
        <mxCell id="aqfKTEB2q-6fqXY61QWh-62" value="" style="endArrow=none;html=1;rounded=0;" edge="1" parent="aqfKTEB2q-6fqXY61QWh-60">
          <mxGeometry width="50" height="50" relative="1" as="geometry">
            <mxPoint x="63.67346938775512" y="14.825761255848438" as="sourcePoint" />
            <mxPoint x="63.67346938775512" as="targetPoint" />
          </mxGeometry>
        </mxCell>
        <mxCell id="aqfKTEB2q-6fqXY61QWh-63" value="" style="endArrow=none;html=1;rounded=0;" edge="1" parent="aqfKTEB2q-6fqXY61QWh-60">
          <mxGeometry width="50" height="50" relative="1" as="geometry">
            <mxPoint y="14.825761255848438" as="sourcePoint" />
            <mxPoint x="63.67346938775512" y="14.825761255848438" as="targetPoint" />
          </mxGeometry>
        </mxCell>
        <mxCell id="aqfKTEB2q-6fqXY61QWh-64" value="" style="endArrow=none;html=1;rounded=0;" edge="1" parent="aqfKTEB2q-6fqXY61QWh-60">
          <mxGeometry width="50" height="50" relative="1" as="geometry">
            <mxPoint x="47.75510204081634" y="14.825761255848438" as="sourcePoint" />
            <mxPoint x="47.75510204081634" as="targetPoint" />
          </mxGeometry>
        </mxCell>
        <mxCell id="aqfKTEB2q-6fqXY61QWh-65" value="" style="endArrow=none;html=1;rounded=0;" edge="1" parent="aqfKTEB2q-6fqXY61QWh-60">
          <mxGeometry width="50" height="50" relative="1" as="geometry">
            <mxPoint x="31.83673469387756" y="14.825761255848438" as="sourcePoint" />
            <mxPoint x="31.83673469387756" as="targetPoint" />
          </mxGeometry>
        </mxCell>
        <mxCell id="aqfKTEB2q-6fqXY61QWh-66" value="" style="endArrow=none;html=1;rounded=0;" edge="1" parent="aqfKTEB2q-6fqXY61QWh-60">
          <mxGeometry width="50" height="50" relative="1" as="geometry">
            <mxPoint x="15.91836734693878" y="14.825761255848438" as="sourcePoint" />
            <mxPoint x="15.91836734693878" as="targetPoint" />
          </mxGeometry>
        </mxCell>
        <mxCell id="aqfKTEB2q-6fqXY61QWh-67" value="" style="group" vertex="1" connectable="0" parent="Ys-BqoRaEP9z7KlwW_o9-21">
          <mxGeometry x="95.51469387755111" width="17.908163265306126" height="75.98202643622324" as="geometry" />
        </mxCell>
        <mxCell id="aqfKTEB2q-6fqXY61QWh-68" value="" style="ellipse;whiteSpace=wrap;html=1;aspect=fixed;strokeWidth=0;" vertex="1" parent="aqfKTEB2q-6fqXY61QWh-67">
          <mxGeometry width="16.678981412829494" height="16.678981412829494" as="geometry" />
        </mxCell>
        <mxCell id="aqfKTEB2q-6fqXY61QWh-69" value="" style="ellipse;whiteSpace=wrap;html=1;aspect=fixed;strokeWidth=0;" vertex="1" parent="aqfKTEB2q-6fqXY61QWh-67">
          <mxGeometry y="16.678981412829494" width="16.678981412829494" height="16.678981412829494" as="geometry" />
        </mxCell>
        <mxCell id="aqfKTEB2q-6fqXY61QWh-70" value="" style="ellipse;whiteSpace=wrap;html=1;aspect=fixed;strokeWidth=0;direction=south;" vertex="1" parent="aqfKTEB2q-6fqXY61QWh-67">
          <mxGeometry y="59.30304502339375" width="16.678981412829494" height="16.678981412829494" as="geometry" />
        </mxCell>
        <mxCell id="aqfKTEB2q-6fqXY61QWh-71" value="" style="endArrow=none;dashed=1;html=1;dashPattern=1 3;strokeWidth=2;rounded=0;exitX=0;exitY=0.5;exitDx=0;exitDy=0;" edge="1" parent="aqfKTEB2q-6fqXY61QWh-67" source="aqfKTEB2q-6fqXY61QWh-70">
          <mxGeometry width="50" height="50" relative="1" as="geometry">
            <mxPoint x="8.691428571428586" y="48.18372408150743" as="sourcePoint" />
            <mxPoint x="8.691428571428586" y="33.35796282565899" as="targetPoint" />
          </mxGeometry>
        </mxCell>
        <mxCell id="Ys-BqoRaEP9z7KlwW_o9-83" value="" style="group" vertex="1" connectable="0" parent="aqfKTEB2q-6fqXY61QWh-1">
          <mxGeometry x="463" y="278" width="113.42285714285725" height="76.07907064147469" as="geometry" />
        </mxCell>
        <mxCell id="Ys-BqoRaEP9z7KlwW_o9-84" value="" style="group" vertex="1" connectable="0" parent="Ys-BqoRaEP9z7KlwW_o9-83">
          <mxGeometry x="31.841428571428537" y="61.25330938562627" width="63.67346938775511" height="14.825761255848438" as="geometry" />
        </mxCell>
        <mxCell id="Ys-BqoRaEP9z7KlwW_o9-85" value="" style="endArrow=none;html=1;rounded=0;" edge="1" parent="Ys-BqoRaEP9z7KlwW_o9-84">
          <mxGeometry width="50" height="50" relative="1" as="geometry">
            <mxPoint as="sourcePoint" />
            <mxPoint x="63.67346938775511" as="targetPoint" />
          </mxGeometry>
        </mxCell>
        <mxCell id="Ys-BqoRaEP9z7KlwW_o9-86" value="" style="endArrow=none;html=1;rounded=0;" edge="1" parent="Ys-BqoRaEP9z7KlwW_o9-84">
          <mxGeometry width="50" height="50" relative="1" as="geometry">
            <mxPoint x="63.67346938775511" y="14.825761255848438" as="sourcePoint" />
            <mxPoint x="63.67346938775511" as="targetPoint" />
          </mxGeometry>
        </mxCell>
        <mxCell id="Ys-BqoRaEP9z7KlwW_o9-87" value="" style="endArrow=none;html=1;rounded=0;" edge="1" parent="Ys-BqoRaEP9z7KlwW_o9-84">
          <mxGeometry width="50" height="50" relative="1" as="geometry">
            <mxPoint y="14.825761255848438" as="sourcePoint" />
            <mxPoint x="63.67346938775511" y="14.825761255848438" as="targetPoint" />
          </mxGeometry>
        </mxCell>
        <mxCell id="Ys-BqoRaEP9z7KlwW_o9-88" value="" style="endArrow=none;html=1;rounded=0;" edge="1" parent="Ys-BqoRaEP9z7KlwW_o9-84">
          <mxGeometry width="50" height="50" relative="1" as="geometry">
            <mxPoint x="47.75510204081633" y="14.825761255848438" as="sourcePoint" />
            <mxPoint x="47.75510204081633" as="targetPoint" />
            <Array as="points">
              <mxPoint x="47.75510204081633" y="14.825761255848438" />
            </Array>
          </mxGeometry>
        </mxCell>
        <mxCell id="Ys-BqoRaEP9z7KlwW_o9-89" value="" style="endArrow=none;html=1;rounded=0;" edge="1" parent="Ys-BqoRaEP9z7KlwW_o9-84">
          <mxGeometry width="50" height="50" relative="1" as="geometry">
            <mxPoint x="31.836734693877556" y="14.825761255848438" as="sourcePoint" />
            <mxPoint x="31.836734693877556" as="targetPoint" />
          </mxGeometry>
        </mxCell>
        <mxCell id="Ys-BqoRaEP9z7KlwW_o9-90" value="" style="endArrow=none;html=1;rounded=0;" edge="1" parent="Ys-BqoRaEP9z7KlwW_o9-84">
          <mxGeometry width="50" height="50" relative="1" as="geometry">
            <mxPoint x="15.918367346938778" y="14.825761255848438" as="sourcePoint" />
            <mxPoint x="15.918367346938778" as="targetPoint" />
          </mxGeometry>
        </mxCell>
        <mxCell id="Ys-BqoRaEP9z7KlwW_o9-91" value="" style="endArrow=openThin;html=1;rounded=0;endFill=0;" edge="1" parent="Ys-BqoRaEP9z7KlwW_o9-83">
          <mxGeometry width="50" height="50" relative="1" as="geometry">
            <mxPoint y="69.26813514688217" as="sourcePoint" />
            <mxPoint x="31.836734693877588" y="69.25330938562627" as="targetPoint" />
          </mxGeometry>
        </mxCell>
        <mxCell id="Ys-BqoRaEP9z7KlwW_o9-92" value="" style="endArrow=none;html=1;rounded=0;" edge="1" parent="Ys-BqoRaEP9z7KlwW_o9-83">
          <mxGeometry width="50" height="50" relative="1" as="geometry">
            <mxPoint x="0.19142857142855974" y="69.81330938562621" as="sourcePoint" />
            <mxPoint x="0.19142857142855974" y="9.813309385626269" as="targetPoint" />
          </mxGeometry>
        </mxCell>
        <mxCell id="Ys-BqoRaEP9z7KlwW_o9-93" value="" style="endArrow=openThin;html=1;rounded=0;endFill=0;" edge="1" parent="Ys-BqoRaEP9z7KlwW_o9-83">
          <mxGeometry width="50" height="50" relative="1" as="geometry">
            <mxPoint x="0.27448979591844136" y="7.681376780098674" as="sourcePoint" />
            <mxPoint x="32.11122448979597" y="7.666551018842824" as="targetPoint" />
          </mxGeometry>
        </mxCell>
        <mxCell id="Ys-BqoRaEP9z7KlwW_o9-94" value="" style="endArrow=openThin;html=1;rounded=0;endFill=0;" edge="1" parent="Ys-BqoRaEP9z7KlwW_o9-83">
          <mxGeometry width="50" height="50" relative="1" as="geometry">
            <mxPoint x="0.27448979591844136" y="38.81547541738041" as="sourcePoint" />
            <mxPoint x="32.11122448979597" y="38.800649656124506" as="targetPoint" />
          </mxGeometry>
        </mxCell>
        <mxCell id="Ys-BqoRaEP9z7KlwW_o9-95" value="" style="endArrow=none;html=1;rounded=0;" edge="1" parent="Ys-BqoRaEP9z7KlwW_o9-83">
          <mxGeometry width="50" height="50" relative="1" as="geometry">
            <mxPoint x="0.27448979591844136" y="38.25209648965813" as="sourcePoint" />
            <mxPoint x="0.27448979591844136" y="8.60057397796129" as="targetPoint" />
          </mxGeometry>
        </mxCell>
        <mxCell id="Ys-BqoRaEP9z7KlwW_o9-96" value="" style="group" vertex="1" connectable="0" parent="Ys-BqoRaEP9z7KlwW_o9-83">
          <mxGeometry x="31.84122448979599" y="1.009784214966885" width="63.67346938775512" height="14.825761255848438" as="geometry" />
        </mxCell>
        <mxCell id="Ys-BqoRaEP9z7KlwW_o9-97" value="" style="endArrow=none;html=1;rounded=0;" edge="1" parent="Ys-BqoRaEP9z7KlwW_o9-96">
          <mxGeometry width="50" height="50" relative="1" as="geometry">
            <mxPoint as="sourcePoint" />
            <mxPoint x="63.67346938775512" as="targetPoint" />
          </mxGeometry>
        </mxCell>
        <mxCell id="Ys-BqoRaEP9z7KlwW_o9-98" value="" style="endArrow=none;html=1;rounded=0;" edge="1" parent="Ys-BqoRaEP9z7KlwW_o9-96">
          <mxGeometry width="50" height="50" relative="1" as="geometry">
            <mxPoint x="63.67346938775512" y="14.825761255848438" as="sourcePoint" />
            <mxPoint x="63.67346938775512" as="targetPoint" />
          </mxGeometry>
        </mxCell>
        <mxCell id="Ys-BqoRaEP9z7KlwW_o9-99" value="" style="endArrow=none;html=1;rounded=0;" edge="1" parent="Ys-BqoRaEP9z7KlwW_o9-96">
          <mxGeometry width="50" height="50" relative="1" as="geometry">
            <mxPoint y="14.825761255848438" as="sourcePoint" />
            <mxPoint x="63.67346938775512" y="14.825761255848438" as="targetPoint" />
          </mxGeometry>
        </mxCell>
        <mxCell id="Ys-BqoRaEP9z7KlwW_o9-100" value="" style="endArrow=none;html=1;rounded=0;" edge="1" parent="Ys-BqoRaEP9z7KlwW_o9-96">
          <mxGeometry width="50" height="50" relative="1" as="geometry">
            <mxPoint x="47.75510204081634" y="14.825761255848438" as="sourcePoint" />
            <mxPoint x="47.75510204081634" as="targetPoint" />
          </mxGeometry>
        </mxCell>
        <mxCell id="Ys-BqoRaEP9z7KlwW_o9-101" value="" style="endArrow=none;html=1;rounded=0;" edge="1" parent="Ys-BqoRaEP9z7KlwW_o9-96">
          <mxGeometry width="50" height="50" relative="1" as="geometry">
            <mxPoint x="31.83673469387756" y="14.825761255848438" as="sourcePoint" />
            <mxPoint x="31.83673469387756" as="targetPoint" />
          </mxGeometry>
        </mxCell>
        <mxCell id="Ys-BqoRaEP9z7KlwW_o9-102" value="" style="endArrow=none;html=1;rounded=0;" edge="1" parent="Ys-BqoRaEP9z7KlwW_o9-96">
          <mxGeometry width="50" height="50" relative="1" as="geometry">
            <mxPoint x="15.91836734693878" y="14.825761255848438" as="sourcePoint" />
            <mxPoint x="15.91836734693878" as="targetPoint" />
          </mxGeometry>
        </mxCell>
        <mxCell id="Ys-BqoRaEP9z7KlwW_o9-103" value="" style="group" vertex="1" connectable="0" parent="Ys-BqoRaEP9z7KlwW_o9-83">
          <mxGeometry x="31.84122448979599" y="31.580503924526397" width="63.67346938775512" height="14.825761255848438" as="geometry" />
        </mxCell>
        <mxCell id="Ys-BqoRaEP9z7KlwW_o9-104" value="" style="endArrow=none;html=1;rounded=0;" edge="1" parent="Ys-BqoRaEP9z7KlwW_o9-103">
          <mxGeometry width="50" height="50" relative="1" as="geometry">
            <mxPoint as="sourcePoint" />
            <mxPoint x="63.67346938775512" as="targetPoint" />
          </mxGeometry>
        </mxCell>
        <mxCell id="Ys-BqoRaEP9z7KlwW_o9-105" value="" style="endArrow=none;html=1;rounded=0;" edge="1" parent="Ys-BqoRaEP9z7KlwW_o9-103">
          <mxGeometry width="50" height="50" relative="1" as="geometry">
            <mxPoint x="63.67346938775512" y="14.825761255848438" as="sourcePoint" />
            <mxPoint x="63.67346938775512" as="targetPoint" />
          </mxGeometry>
        </mxCell>
        <mxCell id="Ys-BqoRaEP9z7KlwW_o9-106" value="" style="endArrow=none;html=1;rounded=0;" edge="1" parent="Ys-BqoRaEP9z7KlwW_o9-103">
          <mxGeometry width="50" height="50" relative="1" as="geometry">
            <mxPoint y="14.825761255848438" as="sourcePoint" />
            <mxPoint x="63.67346938775512" y="14.825761255848438" as="targetPoint" />
          </mxGeometry>
        </mxCell>
        <mxCell id="Ys-BqoRaEP9z7KlwW_o9-107" value="" style="endArrow=none;html=1;rounded=0;" edge="1" parent="Ys-BqoRaEP9z7KlwW_o9-103">
          <mxGeometry width="50" height="50" relative="1" as="geometry">
            <mxPoint x="47.75510204081634" y="14.825761255848438" as="sourcePoint" />
            <mxPoint x="47.75510204081634" as="targetPoint" />
          </mxGeometry>
        </mxCell>
        <mxCell id="Ys-BqoRaEP9z7KlwW_o9-108" value="" style="endArrow=none;html=1;rounded=0;" edge="1" parent="Ys-BqoRaEP9z7KlwW_o9-103">
          <mxGeometry width="50" height="50" relative="1" as="geometry">
            <mxPoint x="31.83673469387756" y="14.825761255848438" as="sourcePoint" />
            <mxPoint x="31.83673469387756" as="targetPoint" />
          </mxGeometry>
        </mxCell>
        <mxCell id="Ys-BqoRaEP9z7KlwW_o9-109" value="" style="endArrow=none;html=1;rounded=0;" edge="1" parent="Ys-BqoRaEP9z7KlwW_o9-103">
          <mxGeometry width="50" height="50" relative="1" as="geometry">
            <mxPoint x="15.91836734693878" y="14.825761255848438" as="sourcePoint" />
            <mxPoint x="15.91836734693878" as="targetPoint" />
          </mxGeometry>
        </mxCell>
        <mxCell id="Ys-BqoRaEP9z7KlwW_o9-110" value="" style="group" vertex="1" connectable="0" parent="Ys-BqoRaEP9z7KlwW_o9-83">
          <mxGeometry x="95.51469387755111" width="17.908163265306126" height="75.98202643622324" as="geometry" />
        </mxCell>
        <mxCell id="Ys-BqoRaEP9z7KlwW_o9-111" value="" style="ellipse;whiteSpace=wrap;html=1;aspect=fixed;strokeWidth=0;" vertex="1" parent="Ys-BqoRaEP9z7KlwW_o9-110">
          <mxGeometry width="16.678981412829494" height="16.678981412829494" as="geometry" />
        </mxCell>
        <mxCell id="Ys-BqoRaEP9z7KlwW_o9-112" value="" style="ellipse;whiteSpace=wrap;html=1;aspect=fixed;strokeWidth=0;" vertex="1" parent="Ys-BqoRaEP9z7KlwW_o9-110">
          <mxGeometry y="16.678981412829494" width="16.678981412829494" height="16.678981412829494" as="geometry" />
        </mxCell>
        <mxCell id="Ys-BqoRaEP9z7KlwW_o9-113" value="" style="ellipse;whiteSpace=wrap;html=1;aspect=fixed;strokeWidth=0;direction=south;" vertex="1" parent="Ys-BqoRaEP9z7KlwW_o9-110">
          <mxGeometry y="59.30304502339375" width="16.678981412829494" height="16.678981412829494" as="geometry" />
        </mxCell>
        <mxCell id="Ys-BqoRaEP9z7KlwW_o9-114" value="" style="endArrow=none;dashed=1;html=1;dashPattern=1 3;strokeWidth=2;rounded=0;exitX=0;exitY=0.5;exitDx=0;exitDy=0;" edge="1" parent="Ys-BqoRaEP9z7KlwW_o9-110" source="Ys-BqoRaEP9z7KlwW_o9-113">
          <mxGeometry width="50" height="50" relative="1" as="geometry">
            <mxPoint x="8.691428571428586" y="48.18372408150743" as="sourcePoint" />
            <mxPoint x="8.691428571428586" y="33.35796282565899" as="targetPoint" />
          </mxGeometry>
        </mxCell>
        <mxCell id="XkGI9BjTyDPIiJbo1Hvd-1" value="Normal" style="text;html=1;align=center;verticalAlign=middle;whiteSpace=wrap;rounded=0;fontSize=7;" vertex="1" parent="Ys-BqoRaEP9z7KlwW_o9-83">
          <mxGeometry x="45.50999999999999" y="23.58000000000004" width="50" height="8" as="geometry" />
        </mxCell>
        <mxCell id="XkGI9BjTyDPIiJbo1Hvd-2" value="Small" style="text;html=1;align=center;verticalAlign=middle;whiteSpace=wrap;rounded=0;fontSize=7;" vertex="1" parent="Ys-BqoRaEP9z7KlwW_o9-83">
          <mxGeometry x="45.50999999999999" y="53.25" width="50" height="8" as="geometry" />
        </mxCell>
        <mxCell id="Ys-BqoRaEP9z7KlwW_o9-115" value="" style="endArrow=none;html=1;rounded=0;" edge="1" parent="aqfKTEB2q-6fqXY61QWh-1">
          <mxGeometry width="50" height="50" relative="1" as="geometry">
            <mxPoint x="430" y="316.9" as="sourcePoint" />
            <mxPoint x="463" y="316.9" as="targetPoint" />
          </mxGeometry>
        </mxCell>
        <mxCell id="0tk8g75wRn5_DfY5hPlX-0" value="$$p_{a_i}$$" style="edgeLabel;html=1;align=center;verticalAlign=middle;resizable=0;points=[];labelBackgroundColor=none;" vertex="1" connectable="0" parent="aqfKTEB2q-6fqXY61QWh-1">
          <mxGeometry x="441" y="305" as="geometry" />
        </mxCell>
        <mxCell id="XkGI9BjTyDPIiJbo1Hvd-0" value="Priority" style="text;html=1;align=center;verticalAlign=middle;whiteSpace=wrap;rounded=0;fontSize=7;" vertex="1" parent="aqfKTEB2q-6fqXY61QWh-1">
          <mxGeometry x="508.62" y="270" width="50" height="8" as="geometry" />
        </mxCell>
      </root>
    </mxGraphModel>
  </diagram>
  <diagram id="kku3_XUdjPD1iCZs3LGx" name="Componenti">
    <mxGraphModel dx="2074" dy="1203" grid="1" gridSize="10" guides="1" tooltips="1" connect="1" arrows="1" fold="1" page="1" pageScale="1" pageWidth="827" pageHeight="1169" math="0" shadow="0">
      <root>
        <mxCell id="0" />
        <mxCell id="1" parent="0" />
        <mxCell id="YsTJoASiXgyIasxUcM8_-1" value="" style="group" vertex="1" connectable="0" parent="1">
          <mxGeometry x="290" y="670" width="113.42285714285725" height="76.07907064147469" as="geometry" />
        </mxCell>
        <mxCell id="YsTJoASiXgyIasxUcM8_-2" value="" style="group" vertex="1" connectable="0" parent="YsTJoASiXgyIasxUcM8_-1">
          <mxGeometry x="31.841428571428537" y="61.25330938562627" width="63.67346938775511" height="14.825761255848438" as="geometry" />
        </mxCell>
        <mxCell id="YsTJoASiXgyIasxUcM8_-3" value="" style="endArrow=none;html=1;rounded=0;" edge="1" parent="YsTJoASiXgyIasxUcM8_-2">
          <mxGeometry width="50" height="50" relative="1" as="geometry">
            <mxPoint as="sourcePoint" />
            <mxPoint x="63.67346938775511" as="targetPoint" />
          </mxGeometry>
        </mxCell>
        <mxCell id="YsTJoASiXgyIasxUcM8_-4" value="" style="endArrow=none;html=1;rounded=0;" edge="1" parent="YsTJoASiXgyIasxUcM8_-2">
          <mxGeometry width="50" height="50" relative="1" as="geometry">
            <mxPoint x="63.67346938775511" y="14.825761255848438" as="sourcePoint" />
            <mxPoint x="63.67346938775511" as="targetPoint" />
          </mxGeometry>
        </mxCell>
        <mxCell id="YsTJoASiXgyIasxUcM8_-5" value="" style="endArrow=none;html=1;rounded=0;" edge="1" parent="YsTJoASiXgyIasxUcM8_-2">
          <mxGeometry width="50" height="50" relative="1" as="geometry">
            <mxPoint y="14.825761255848438" as="sourcePoint" />
            <mxPoint x="63.67346938775511" y="14.825761255848438" as="targetPoint" />
          </mxGeometry>
        </mxCell>
        <mxCell id="YsTJoASiXgyIasxUcM8_-6" value="" style="endArrow=none;html=1;rounded=0;" edge="1" parent="YsTJoASiXgyIasxUcM8_-2">
          <mxGeometry width="50" height="50" relative="1" as="geometry">
            <mxPoint x="47.75510204081633" y="14.825761255848438" as="sourcePoint" />
            <mxPoint x="47.75510204081633" as="targetPoint" />
            <Array as="points">
              <mxPoint x="47.75510204081633" y="14.825761255848438" />
            </Array>
          </mxGeometry>
        </mxCell>
        <mxCell id="YsTJoASiXgyIasxUcM8_-7" value="" style="endArrow=none;html=1;rounded=0;" edge="1" parent="YsTJoASiXgyIasxUcM8_-2">
          <mxGeometry width="50" height="50" relative="1" as="geometry">
            <mxPoint x="31.836734693877556" y="14.825761255848438" as="sourcePoint" />
            <mxPoint x="31.836734693877556" as="targetPoint" />
          </mxGeometry>
        </mxCell>
        <mxCell id="YsTJoASiXgyIasxUcM8_-8" value="" style="endArrow=none;html=1;rounded=0;" edge="1" parent="YsTJoASiXgyIasxUcM8_-2">
          <mxGeometry width="50" height="50" relative="1" as="geometry">
            <mxPoint x="15.918367346938778" y="14.825761255848438" as="sourcePoint" />
            <mxPoint x="15.918367346938778" as="targetPoint" />
          </mxGeometry>
        </mxCell>
        <mxCell id="YsTJoASiXgyIasxUcM8_-9" value="" style="endArrow=openThin;html=1;rounded=0;endFill=0;" edge="1" parent="YsTJoASiXgyIasxUcM8_-1">
          <mxGeometry width="50" height="50" relative="1" as="geometry">
            <mxPoint y="69.26813514688217" as="sourcePoint" />
            <mxPoint x="31.836734693877588" y="69.25330938562627" as="targetPoint" />
          </mxGeometry>
        </mxCell>
        <mxCell id="YsTJoASiXgyIasxUcM8_-10" value="" style="endArrow=none;html=1;rounded=0;" edge="1" parent="YsTJoASiXgyIasxUcM8_-1">
          <mxGeometry width="50" height="50" relative="1" as="geometry">
            <mxPoint x="0.19142857142855974" y="69.81330938562621" as="sourcePoint" />
            <mxPoint x="0.19142857142855974" y="9.813309385626269" as="targetPoint" />
          </mxGeometry>
        </mxCell>
        <mxCell id="YsTJoASiXgyIasxUcM8_-11" value="" style="endArrow=openThin;html=1;rounded=0;endFill=0;" edge="1" parent="YsTJoASiXgyIasxUcM8_-1">
          <mxGeometry width="50" height="50" relative="1" as="geometry">
            <mxPoint x="0.27448979591844136" y="7.681376780098674" as="sourcePoint" />
            <mxPoint x="32.11122448979597" y="7.666551018842824" as="targetPoint" />
          </mxGeometry>
        </mxCell>
        <mxCell id="YsTJoASiXgyIasxUcM8_-12" value="" style="endArrow=openThin;html=1;rounded=0;endFill=0;" edge="1" parent="YsTJoASiXgyIasxUcM8_-1">
          <mxGeometry width="50" height="50" relative="1" as="geometry">
            <mxPoint x="0.27448979591844136" y="38.81547541738041" as="sourcePoint" />
            <mxPoint x="32.11122448979597" y="38.800649656124506" as="targetPoint" />
          </mxGeometry>
        </mxCell>
        <mxCell id="YsTJoASiXgyIasxUcM8_-13" value="" style="endArrow=none;html=1;rounded=0;" edge="1" parent="YsTJoASiXgyIasxUcM8_-1">
          <mxGeometry width="50" height="50" relative="1" as="geometry">
            <mxPoint x="0.27448979591844136" y="38.25209648965813" as="sourcePoint" />
            <mxPoint x="0.27448979591844136" y="8.60057397796129" as="targetPoint" />
          </mxGeometry>
        </mxCell>
        <mxCell id="YsTJoASiXgyIasxUcM8_-14" value="" style="group" vertex="1" connectable="0" parent="YsTJoASiXgyIasxUcM8_-1">
          <mxGeometry x="31.84122448979599" y="1.009784214966885" width="63.67346938775512" height="14.825761255848438" as="geometry" />
        </mxCell>
        <mxCell id="YsTJoASiXgyIasxUcM8_-15" value="" style="endArrow=none;html=1;rounded=0;" edge="1" parent="YsTJoASiXgyIasxUcM8_-14">
          <mxGeometry width="50" height="50" relative="1" as="geometry">
            <mxPoint as="sourcePoint" />
            <mxPoint x="63.67346938775512" as="targetPoint" />
          </mxGeometry>
        </mxCell>
        <mxCell id="YsTJoASiXgyIasxUcM8_-16" value="" style="endArrow=none;html=1;rounded=0;" edge="1" parent="YsTJoASiXgyIasxUcM8_-14">
          <mxGeometry width="50" height="50" relative="1" as="geometry">
            <mxPoint x="63.67346938775512" y="14.825761255848438" as="sourcePoint" />
            <mxPoint x="63.67346938775512" as="targetPoint" />
          </mxGeometry>
        </mxCell>
        <mxCell id="YsTJoASiXgyIasxUcM8_-17" value="" style="endArrow=none;html=1;rounded=0;" edge="1" parent="YsTJoASiXgyIasxUcM8_-14">
          <mxGeometry width="50" height="50" relative="1" as="geometry">
            <mxPoint y="14.825761255848438" as="sourcePoint" />
            <mxPoint x="63.67346938775512" y="14.825761255848438" as="targetPoint" />
          </mxGeometry>
        </mxCell>
        <mxCell id="YsTJoASiXgyIasxUcM8_-18" value="" style="endArrow=none;html=1;rounded=0;" edge="1" parent="YsTJoASiXgyIasxUcM8_-14">
          <mxGeometry width="50" height="50" relative="1" as="geometry">
            <mxPoint x="47.75510204081634" y="14.825761255848438" as="sourcePoint" />
            <mxPoint x="47.75510204081634" as="targetPoint" />
          </mxGeometry>
        </mxCell>
        <mxCell id="YsTJoASiXgyIasxUcM8_-19" value="" style="endArrow=none;html=1;rounded=0;" edge="1" parent="YsTJoASiXgyIasxUcM8_-14">
          <mxGeometry width="50" height="50" relative="1" as="geometry">
            <mxPoint x="31.83673469387756" y="14.825761255848438" as="sourcePoint" />
            <mxPoint x="31.83673469387756" as="targetPoint" />
          </mxGeometry>
        </mxCell>
        <mxCell id="YsTJoASiXgyIasxUcM8_-20" value="" style="endArrow=none;html=1;rounded=0;" edge="1" parent="YsTJoASiXgyIasxUcM8_-14">
          <mxGeometry width="50" height="50" relative="1" as="geometry">
            <mxPoint x="15.91836734693878" y="14.825761255848438" as="sourcePoint" />
            <mxPoint x="15.91836734693878" as="targetPoint" />
          </mxGeometry>
        </mxCell>
        <mxCell id="YsTJoASiXgyIasxUcM8_-21" value="" style="group" vertex="1" connectable="0" parent="YsTJoASiXgyIasxUcM8_-1">
          <mxGeometry x="31.84122448979599" y="31.580503924526397" width="63.67346938775512" height="14.825761255848438" as="geometry" />
        </mxCell>
        <mxCell id="YsTJoASiXgyIasxUcM8_-22" value="" style="endArrow=none;html=1;rounded=0;" edge="1" parent="YsTJoASiXgyIasxUcM8_-21">
          <mxGeometry width="50" height="50" relative="1" as="geometry">
            <mxPoint as="sourcePoint" />
            <mxPoint x="63.67346938775512" as="targetPoint" />
          </mxGeometry>
        </mxCell>
        <mxCell id="YsTJoASiXgyIasxUcM8_-23" value="" style="endArrow=none;html=1;rounded=0;" edge="1" parent="YsTJoASiXgyIasxUcM8_-21">
          <mxGeometry width="50" height="50" relative="1" as="geometry">
            <mxPoint x="63.67346938775512" y="14.825761255848438" as="sourcePoint" />
            <mxPoint x="63.67346938775512" as="targetPoint" />
          </mxGeometry>
        </mxCell>
        <mxCell id="YsTJoASiXgyIasxUcM8_-24" value="" style="endArrow=none;html=1;rounded=0;" edge="1" parent="YsTJoASiXgyIasxUcM8_-21">
          <mxGeometry width="50" height="50" relative="1" as="geometry">
            <mxPoint y="14.825761255848438" as="sourcePoint" />
            <mxPoint x="63.67346938775512" y="14.825761255848438" as="targetPoint" />
          </mxGeometry>
        </mxCell>
        <mxCell id="YsTJoASiXgyIasxUcM8_-25" value="" style="endArrow=none;html=1;rounded=0;" edge="1" parent="YsTJoASiXgyIasxUcM8_-21">
          <mxGeometry width="50" height="50" relative="1" as="geometry">
            <mxPoint x="47.75510204081634" y="14.825761255848438" as="sourcePoint" />
            <mxPoint x="47.75510204081634" as="targetPoint" />
          </mxGeometry>
        </mxCell>
        <mxCell id="YsTJoASiXgyIasxUcM8_-26" value="" style="endArrow=none;html=1;rounded=0;" edge="1" parent="YsTJoASiXgyIasxUcM8_-21">
          <mxGeometry width="50" height="50" relative="1" as="geometry">
            <mxPoint x="31.83673469387756" y="14.825761255848438" as="sourcePoint" />
            <mxPoint x="31.83673469387756" as="targetPoint" />
          </mxGeometry>
        </mxCell>
        <mxCell id="YsTJoASiXgyIasxUcM8_-27" value="" style="endArrow=none;html=1;rounded=0;" edge="1" parent="YsTJoASiXgyIasxUcM8_-21">
          <mxGeometry width="50" height="50" relative="1" as="geometry">
            <mxPoint x="15.91836734693878" y="14.825761255848438" as="sourcePoint" />
            <mxPoint x="15.91836734693878" as="targetPoint" />
          </mxGeometry>
        </mxCell>
        <mxCell id="YsTJoASiXgyIasxUcM8_-28" value="" style="group" vertex="1" connectable="0" parent="YsTJoASiXgyIasxUcM8_-1">
          <mxGeometry x="95.51469387755111" width="17.908163265306126" height="75.98202643622324" as="geometry" />
        </mxCell>
        <mxCell id="YsTJoASiXgyIasxUcM8_-29" value="" style="ellipse;whiteSpace=wrap;html=1;aspect=fixed;strokeWidth=0;" vertex="1" parent="YsTJoASiXgyIasxUcM8_-28">
          <mxGeometry width="16.678981412829494" height="16.678981412829494" as="geometry" />
        </mxCell>
        <mxCell id="YsTJoASiXgyIasxUcM8_-30" value="" style="ellipse;whiteSpace=wrap;html=1;aspect=fixed;strokeWidth=0;" vertex="1" parent="YsTJoASiXgyIasxUcM8_-28">
          <mxGeometry y="16.678981412829494" width="16.678981412829494" height="16.678981412829494" as="geometry" />
        </mxCell>
        <mxCell id="YsTJoASiXgyIasxUcM8_-31" value="" style="ellipse;whiteSpace=wrap;html=1;aspect=fixed;strokeWidth=0;direction=south;" vertex="1" parent="YsTJoASiXgyIasxUcM8_-28">
          <mxGeometry y="59.30304502339375" width="16.678981412829494" height="16.678981412829494" as="geometry" />
        </mxCell>
        <mxCell id="YsTJoASiXgyIasxUcM8_-32" value="" style="endArrow=none;dashed=1;html=1;dashPattern=1 3;strokeWidth=2;rounded=0;exitX=0;exitY=0.5;exitDx=0;exitDy=0;" edge="1" parent="YsTJoASiXgyIasxUcM8_-28" source="YsTJoASiXgyIasxUcM8_-31">
          <mxGeometry width="50" height="50" relative="1" as="geometry">
            <mxPoint x="8.691428571428586" y="48.18372408150743" as="sourcePoint" />
            <mxPoint x="8.691428571428586" y="33.35796282565899" as="targetPoint" />
          </mxGeometry>
        </mxCell>
      </root>
    </mxGraphModel>
  </diagram>
</mxfile>
